<?xml version="1.0" encoding="utf-8"?>
<!-- Generator: Adobe Illustrator 12.0.0, SVG Export Plug-In . SVG Version: 6.00 Build 51448)  -->
<!DOCTYPE svg PUBLIC "-//W3C//DTD SVG 1.1//EN" "http://www.w3.org/Graphics/SVG/1.1/DTD/svg11.dtd" [
	<!ENTITY ns_svg "http://www.w3.org/2000/svg">
	<!ENTITY ns_xlink "http://www.w3.org/1999/xlink">
]>
<svg  version="1.1" id="Capa_1" xmlns="&ns_svg;" xmlns:xlink="&ns_xlink;" width="606.496" height="71.658"
	 viewBox="0 0 606.496 71.658" overflow="visible" enable-background="new 0 0 606.496 71.658" xml:space="preserve">
<path fill="#2C2C2C" d="M44.683,63.44c0,1.39-0.25,2.566-0.75,3.529c-0.503,0.967-1.506,1.756-3.012,2.373
	c-1.502,0.62-3.606,1.081-6.308,1.39c-2.701,0.309-6.251,0.463-10.65,0.463c-4.631,0-8.393-0.116-11.287-0.348
	s-5.152-0.596-6.774-1.098c-1.62-0.504-2.719-1.196-3.297-2.086c-0.579-0.886-0.868-2.026-0.868-3.413
	c0-1.465,0.172-3.725,0.52-6.775c0.349-3.045,0.828-6.656,1.447-10.822c0.156-1.08,0.386-2.721,0.697-4.92
	c0.307-2.201,0.635-4.574,0.982-7.12c0.348-2.548,0.675-5.034,0.984-7.468c0.308-2.431,0.56-4.358,0.752-5.788
	c0.193-1.427,0.29-2.219,0.29-2.374L1.04,18.636c-0.386-0.693-0.655-1.348-0.811-1.967C0.075,16.052,0,15.321,0,14.47
	C0,12,1.136,10.285,3.413,9.32c2.275-0.965,6.079-1.447,11.405-1.447c2.392,0,4.283,0.114,5.671,0.344
	c1.388,0.234,2.45,0.542,3.184,0.927c0.733,0.388,1.216,0.868,1.447,1.446c0.23,0.58,0.349,1.217,0.349,1.911
	c0,0.849-0.041,1.679-0.118,2.489c-0.075,0.81-0.193,1.678-0.347,2.605L19.68,59.501h24.194
	C44.415,60.584,44.683,61.896,44.683,63.44L44.683,63.44z M98.922,69.631c-2.742,1.274-6.541,1.913-11.404,1.913
	c-2.241,0-4.035-0.504-5.383-1.508c-1.352-1.001-2.027-2.737-2.027-5.207c0-0.157,0.019-0.425,0.059-0.811
	c0.039-0.386,0.093-0.733,0.173-1.044c-1.313,3.012-3.28,5.171-5.905,6.483c-2.622,1.313-5.713,1.968-9.262,1.968
	c-5.555,0-9.723-1.447-12.5-4.342c-2.781-2.895-4.17-7.465-4.17-13.719c0-5.092,0.639-9.551,1.913-13.369
	c1.271-3.82,3.008-7.004,5.207-9.55c2.201-2.549,4.748-4.438,7.642-5.675c2.895-1.233,5.922-1.851,9.089-1.851
	c2.622,0,4.841,0.27,6.657,0.811c1.812,0.54,3.259,1.466,4.341,2.776c0.462-1.543,1.251-2.546,2.375-3.008
	c1.117-0.465,2.446-0.696,3.993-0.696c3.78,0,6.905,0.734,9.375,2.199l-3.355,25.702c-0.311,2.006-0.504,3.587-0.579,4.744
	c-0.08,1.158-0.117,2.086-0.117,2.78c0,0.618,0.134,1.101,0.407,1.447c0.268,0.345,0.827,0.521,1.677,0.521
	c0.539,0,1.217-0.038,2.026-0.117c0.809-0.075,1.523-0.189,2.143-0.348c1.158,0.926,1.736,2.24,1.736,3.938
	C103.032,66.373,101.66,68.361,98.922,69.631L98.922,69.631z M79.241,33.802c-0.889-0.076-1.795-0.116-2.722-0.116
	c-3.548,0-6.387,1.467-8.507,4.398c-2.125,2.936-3.184,7.295-3.184,13.082c0,3.473,0.579,5.868,1.737,7.178
	c1.158,1.312,2.933,1.968,5.324,1.968c2.701,0,4.862-0.886,6.483-2.661l3.357-23.152C80.958,34.114,80.127,33.881,79.241,33.802
	L79.241,33.802z M145.75,71.544c-2.857,0-4.882-0.519-6.078-1.548c-1.199-1.031-1.602-2.886-1.216-5.56l0.347-2.292
	c-1.698,3.058-3.9,5.366-6.598,6.934c-2.705,1.567-6.484,2.348-11.345,2.348c-4.169,0-7.353-0.868-9.552-2.604
	c-2.202-1.737-3.299-4.496-3.299-8.276c0-1.623,0.075-3.145,0.229-4.574c0.156-1.428,0.504-3.49,1.044-6.191l2.895-15.746
	l-5.327,0.115c-0.462-0.615-0.771-1.273-0.926-1.965c-0.155-0.697-0.23-1.431-0.23-2.203c0-2.546,1.175-4.341,3.531-5.381
	c2.353-1.044,6.115-1.565,11.287-1.565c3.858,0,6.346,0.565,7.467,1.685c1.119,1.122,1.484,2.885,1.099,5.285l-2.894,18.113
	c-0.308,1.628-0.58,3.292-0.81,4.995c-0.232,1.705-0.348,3.059-0.348,4.064c0,1.161,0.348,1.977,1.042,2.438
	c0.695,0.465,1.814,0.696,3.357,0.696c1.622,0,3.242-0.403,4.861-1.22c1.623-0.809,2.97-2.107,4.052-3.891l3.128-23.225
	c0.231-1.856,0.521-3.366,0.868-4.527c0.345-1.16,0.848-2.09,1.503-2.789c0.654-0.695,1.468-1.178,2.432-1.45
	c0.965-0.272,2.181-0.406,3.647-0.406c1.622,0,3.259,0.193,4.919,0.582c1.66,0.386,2.991,0.967,3.996,1.739l-3.707,27.639
	c-0.155,1.008-0.289,2.018-0.404,3.023c-0.116,1.005-0.175,2.01-0.175,3.015c0,1.006,0.616,1.51,1.854,1.51
	c0.538,0,1.175-0.038,1.909-0.114s1.447-0.192,2.143-0.35c1.233,0.922,1.852,2.224,1.852,3.902
	C162.303,68.946,156.785,71.544,145.75,71.544L145.75,71.544z M207.105,33.631c-0.541,1.119-1.158,2.063-1.854,2.835
	c-1.234-0.155-2.219-0.252-2.952-0.29c-0.734-0.038-1.447-0.059-2.14-0.059c-1.39,0-2.588,0.097-3.591,0.289
	c-1.001,0.193-1.987,0.658-2.952,1.39c-0.965,0.733-2.005,1.835-3.124,3.3c-1.121,1.468-2.489,3.512-4.112,6.137L183.374,70.5
	c-1.082,0.386-2.415,0.637-3.993,0.754c-1.584,0.114-2.994,0.172-4.228,0.172c-5.017,0-7.525-2.159-7.525-6.483
	c0-0.617,0.077-1.485,0.231-2.604c0.155-1.117,0.349-2.447,0.579-3.994l3.359-24.311l-5.327,0.115
	c-0.462-0.615-0.773-1.273-0.927-1.965c-0.154-0.697-0.23-1.431-0.23-2.203c0-2.546,1.175-4.341,3.532-5.381
	c2.353-1.044,6.115-1.565,11.286-1.565c3.394,0,5.672,0.407,6.83,1.217c1.157,0.809,1.542,2.18,1.157,4.11l-1.271,7.408
	c1.31-2.701,2.468-4.899,3.473-6.599c1.003-1.695,2.006-3.01,3.008-3.935c1.003-0.926,2.084-1.565,3.242-1.912
	c1.159-0.348,2.508-0.52,4.052-0.52c2.701,0,4.592,0.657,5.675,1.967c1.078,1.313,1.619,2.974,1.619,4.978
	C207.915,31.219,207.644,32.51,207.105,33.631L207.105,33.631z M240.213,13.833c-1.699,1.581-4.051,2.374-7.06,2.374
	c-2.164,0-4.051-0.482-5.674-1.447c-1.62-0.965-2.429-2.873-2.429-5.729c0-2.471,0.868-4.556,2.605-6.254
	c1.737-1.696,4.147-2.546,7.235-2.546c2.7,0,4.689,0.696,5.961,2.084c1.273,1.388,1.912,3.166,1.912,5.324
	C242.763,10.187,241.911,12.251,240.213,13.833L240.213,13.833z M233.326,23.442c1.196,0.272,2.102,0.692,2.721,1.271
	c0.618,0.579,1.003,1.315,1.158,2.201c0.153,0.889,0.153,1.909,0,3.067l-2.663,18.062c-0.386,2.701-0.75,4.939-1.099,6.715
	c-0.348,1.775-0.52,3.047-0.52,3.816c0,0.389,0.113,0.756,0.345,1.103c0.234,0.345,0.695,0.521,1.391,0.521
	c0.539,0,1.213-0.038,2.027-0.117c0.808-0.075,1.561-0.189,2.255-0.348c1.235,0.926,1.851,2.202,1.851,3.82
	c0,2.704-1.272,4.689-3.817,5.965c-2.549,1.271-6.64,1.908-12.273,1.908c-2.855,0-5.075-0.579-6.656-1.736
	c-1.583-1.158-2.375-2.97-2.375-5.439c0-1.004,0.076-2.219,0.23-3.649c0.156-1.426,0.311-2.757,0.465-3.993l3.935-22.574
	l-5.323,0.115c-0.464-0.615-0.775-1.273-0.927-1.965c-0.155-0.697-0.23-1.431-0.23-2.203c0-2.546,1.176-4.341,3.528-5.381
	c2.354-1.044,6.117-1.565,11.288-1.565C230.566,23.035,232.129,23.172,233.326,23.442L233.326,23.442z M296.939,69.808
	c-2.705,1.232-6.871,1.85-12.504,1.85c-2.471,0-4.514-0.579-6.135-1.743c-1.621-1.159-2.43-2.978-2.43-5.454
	c0-1.318,0.076-2.654,0.23-4.009c0.152-1.354,0.348-2.648,0.579-3.891c0.076-0.387,0.21-1.085,0.403-2.09
	c0.193-1.006,0.425-2.166,0.697-3.482c0.268-1.314,0.537-2.688,0.81-4.121c0.269-1.432,0.52-2.807,0.753-4.125
	c0.232-1.313,0.421-2.457,0.579-3.424c0.152-0.967,0.231-1.605,0.231-1.918c0-0.926-0.29-1.759-0.868-2.496
	c-0.579-0.734-1.874-1.103-3.878-1.103c-1.775,0-3.474,0.427-5.094,1.278c-1.622,0.851-3.086,2.207-4.399,4.063l-4.051,31.353
	c-1.082,0.389-2.412,0.64-3.993,0.759c-1.584,0.114-2.993,0.172-4.228,0.172c-5.017,0-7.524-2.165-7.524-6.501
	c0-0.619,0.076-1.492,0.234-2.613c0.152-1.123,0.344-2.459,0.579-4.005l3.356-24.387l-5.328,0.113
	c-0.461-0.611-0.771-1.261-0.923-1.947c-0.157-0.688-0.233-1.412-0.233-2.178c0-2.517,1.178-4.294,3.532-5.327
	c2.352-1.028,6.115-1.547,11.286-1.547c3.398,0,5.675,0.404,6.833,1.205c1.158,0.802,1.54,2.158,1.158,4.067l-0.697,4.008
	c2.005-3.286,4.301-5.71,6.889-7.277c2.583-1.567,6.153-2.35,10.707-2.35c4.708,0,8.104,0.947,10.188,2.838
	c2.085,1.891,3.125,4.687,3.125,8.394c0,1.387-0.096,2.911-0.289,4.57c-0.193,1.662-0.445,3.34-0.751,5.035
	c-0.31,1.699-0.638,3.342-0.985,4.92c-0.348,1.584-0.638,3.07-0.868,4.457c-0.154,1.004-0.311,2.048-0.462,3.127
	c-0.155,1.082-0.23,2.125-0.23,3.125c0,0.851,0.617,1.275,1.851,1.275c0.54,0,1.175-0.039,1.913-0.118
	c0.731-0.075,1.446-0.19,2.14-0.345c1.233,0.924,1.852,2.24,1.852,3.936C300.99,66.602,299.64,68.573,296.939,69.808L296.939,69.808
	z M355.979,32.184c-0.311,0.846-0.775,1.58-1.391,2.197c-0.85-0.075-1.698-0.117-2.548-0.117c-0.849,0-1.618,0-2.313,0
	c-0.617,0-1.196,0.08-1.736,0.234c-0.542,0.154-1.196,0.559-1.968,1.213c-0.772,0.657-1.7,1.66-2.776,3.012
	c-1.083,1.351-2.473,3.184-4.168,5.499l7.87,14.239c0.307,0.461,0.639,0.869,0.982,1.216c0.35,0.345,0.832,0.521,1.447,0.521
	c0.542,0,1.196-0.038,1.972-0.117c0.768-0.075,1.503-0.189,2.198-0.348c0.615,0.389,1.04,0.947,1.273,1.681
	c0.231,0.733,0.345,1.486,0.345,2.258c0,2.701-1.29,4.668-3.876,5.902c-2.588,1.235-6.31,1.853-11.173,1.853
	c-1.157,0-2.142-0.115-2.95-0.348c-0.813-0.231-1.526-0.596-2.142-1.1c-0.622-0.499-1.198-1.194-1.736-2.084
	c-0.543-0.886-1.121-1.985-1.739-3.297l-7.755-15.863L320.901,70.5c-1.08,0.386-2.414,0.637-3.994,0.754
	c-1.584,0.114-2.993,0.172-4.226,0.172c-4.942,0-7.407-2.159-7.407-6.483c0-1.235,0.229-3.433,0.692-6.599L312.45,9.03
	c0.461-3.628,1.368-6.04,2.721-7.236C316.52,0.598,318.663,0,321.595,0c1.623,0,3.184,0.192,4.69,0.578
	c1.506,0.387,2.76,0.966,3.761,1.737l-5.439,40.75c3.474-4.786,6.23-8.528,8.276-11.23c2.045-2.701,3.801-4.726,5.268-6.077
	c1.464-1.351,2.798-2.181,3.992-2.491c1.196-0.307,2.682-0.462,4.459-0.462c3.703,0,6.271,0.52,7.699,1.564
	c1.429,1.04,2.143,2.605,2.143,4.687C356.443,30.292,356.286,31.333,355.979,32.184L355.979,32.184z M410.33,69.631
	c-2.739,1.274-6.541,1.913-11.401,1.913c-2.24,0-4.035-0.504-5.386-1.508c-1.349-1.001-2.026-2.737-2.026-5.207
	c0-0.157,0.021-0.425,0.058-0.811c0.039-0.386,0.099-0.733,0.176-1.044c-1.316,3.012-3.282,5.171-5.906,6.483
	c-2.622,1.313-5.71,1.968-9.26,1.968c-5.558,0-9.724-1.447-12.504-4.342c-2.776-2.895-4.166-7.465-4.166-13.719
	c0-5.092,0.637-9.551,1.91-13.369c1.273-3.82,3.011-7.004,5.208-9.55c2.202-2.549,4.749-4.438,7.644-5.675
	c2.895-1.233,5.922-1.851,9.086-1.851c2.622,0,4.844,0.27,6.655,0.811c1.813,0.54,3.261,1.466,4.342,2.776
	c0.465-1.543,1.256-2.546,2.373-3.008c1.119-0.465,2.45-0.696,3.994-0.696c3.78,0,6.908,0.734,9.38,2.199l-3.359,25.702
	c-0.307,2.006-0.502,3.587-0.581,4.744c-0.075,1.158-0.111,2.086-0.111,2.78c0,0.618,0.133,1.101,0.401,1.447
	c0.274,0.345,0.831,0.521,1.683,0.521c0.538,0,1.214-0.038,2.026-0.117c0.808-0.075,1.521-0.189,2.14-0.348
	c1.157,0.926,1.736,2.24,1.736,3.938C414.44,66.373,413.068,68.361,410.33,69.631L410.33,69.631z M390.648,33.802
	c-0.886-0.076-1.792-0.116-2.719-0.116c-3.553,0-6.387,1.467-8.51,4.398c-2.122,2.936-3.182,7.295-3.182,13.082
	c0,3.473,0.577,5.868,1.734,7.178c1.158,1.312,2.934,1.968,5.326,1.968c2.701,0,4.862-0.886,6.483-2.661l3.357-23.152
	C392.37,34.114,391.538,33.881,390.648,33.802L390.648,33.802z M432.502,69.458c-1.083,0.928-2.588,1.389-4.518,1.389
	c-1.39,0-2.545-0.328-3.474-0.983c-0.926-0.656-1.39-1.754-1.39-3.298s0.539-2.819,1.621-3.823c1.081-1.001,2.627-1.505,4.631-1.505
	c1.698,0,2.914,0.389,3.647,1.158c0.731,0.771,1.1,1.815,1.1,3.126C434.12,67.22,433.578,68.532,432.502,69.458L432.502,69.458z
	 M478.053,30.736c-0.27,0.579-0.711,1.061-1.331,1.448c-1.392-0.542-2.895-0.945-4.518-1.219c-1.616-0.268-3.664-0.405-6.134-0.405
	c-2.315,0-4.534,0.405-6.657,1.213c-2.12,0.807-3.956,2.02-5.497,3.635c-1.546,1.616-2.778,3.674-3.705,6.174
	c-0.928,2.498-1.387,5.479-1.387,8.941c0,5.463,1.001,9.385,3.008,11.771c2.007,2.382,5.054,3.573,9.146,3.573
	c2.391,0,4.766-0.231,7.115-0.692c2.354-0.465,4.767-1.273,7.236-2.434c0.389,0.312,0.697,0.715,0.929,1.219
	c0.229,0.501,0.347,0.981,0.347,1.446c0,1.804-1.254,3.278-3.763,4.424c-2.506,1.138-6.848,1.713-13.022,1.713
	c-6.021,0-10.537-1.641-13.544-4.921c-3.012-3.28-4.517-7.931-4.517-13.951c0-8.721,2.217-15.629,6.656-20.724
	c4.437-5.093,10.864-7.638,19.277-7.638c4.009,0,6.807,0.386,8.394,1.156c1.58,0.773,2.371,1.93,2.371,3.474
	C478.458,29.557,478.323,30.158,478.053,30.736L478.053,30.736z M524.531,54.699c-1.081,3.435-2.681,6.388-4.803,8.854
	c-2.123,2.471-4.709,4.399-7.755,5.789c-3.051,1.39-6.544,2.084-10.478,2.084c-11.966,0-17.943-6.521-17.943-19.563
	c0-4.014,0.596-7.719,1.794-11.115c1.196-3.394,2.875-6.288,5.034-8.684c2.161-2.39,4.747-4.262,7.757-5.614
	c3.009-1.349,6.327-2.026,9.955-2.026c3.319,0,6.139,0.447,8.452,1.333c2.317,0.888,4.188,2.16,5.612,3.821
	c1.431,1.66,2.453,3.665,3.07,6.018c0.617,2.354,0.927,4.96,0.927,7.815C526.154,47.502,525.613,51.264,524.531,54.699
	L524.531,54.699z M516.439,33.583c-1.998-2.632-5.3-3.949-9.916-3.949c-2.536,0-4.807,0.603-6.801,1.8
	c-2,1.201-3.711,2.77-5.135,4.704c-1.42,1.935-2.498,4.163-3.227,6.678c-0.731,2.519-1.096,5.052-1.096,7.606
	c0,5.5,0.999,9.506,2.997,12.021c2,2.518,5.345,3.773,10.032,3.773c2.613,0,4.92-0.619,6.918-1.856
	c2.001-1.239,3.69-2.866,5.075-4.878c1.383-2.011,2.421-4.257,3.113-6.735c0.69-2.479,1.037-4.993,1.037-7.549
	C519.438,40.088,518.439,36.216,516.439,33.583L516.439,33.583z M604.294,70.097c-1.466,0.733-3.934,1.098-7.407,1.098
	c-2.163,0-3.782-0.423-4.862-1.273c-1.081-0.847-1.623-2.391-1.623-4.631c0-0.848,0.04-1.87,0.118-3.066
	c0.076-1.196,0.27-2.568,0.578-4.112c0.692-4.088,1.273-7.443,1.739-10.068c0.459-2.623,0.883-5.114,1.271-7.467
	c0.384-2.354,0.576-3.84,0.576-4.459c0.157-1.854-0.251-3.299-1.213-4.342c-0.968-1.04-2.801-1.563-5.5-1.563
	c-2.472,0-5.094,0.926-7.87,2.779c-2.781,1.851-5.21,4.593-7.296,8.217l-3.819,29.406c-0.617,0.389-1.697,0.579-3.243,0.579
	c-1.542,0-2.507-0.309-2.895-0.926c-0.384-0.618-0.577-1.465-0.577-2.548c0-1.62,0.133-3.241,0.407-4.86
	c0.269-1.623,0.52-3.205,0.751-4.749l3.01-20.953c0.386-2.158,0.136-3.855-0.75-5.094c-0.89-1.232-2.803-1.852-5.735-1.852
	c-2.468,0-5.111,0.926-7.929,2.779c-2.814,1.851-5.266,4.593-7.35,8.217l-0.811,6.254c-0.229,1.851-0.521,4.014-0.868,6.482
	c-0.35,2.474-0.675,4.844-0.984,7.121c-0.307,2.276-0.56,4.303-0.752,6.076c-0.193,1.774-0.292,2.933-0.292,3.473
	c-0.384,0.156-0.827,0.29-1.329,0.403c-0.502,0.118-1.177,0.176-2.024,0.176c-1.548,0-2.491-0.309-2.838-0.926
	c-0.348-0.618-0.521-1.465-0.521-2.548c0-1.62,0.133-3.241,0.405-4.86c0.269-1.623,0.523-3.205,0.751-4.749l3.822-27.435
	l-7.176,0.23c-0.543-0.538-0.811-1.194-0.811-1.967c0-1.313,0.75-2.257,2.258-2.835c1.505-0.579,4.109-0.869,7.813-0.869
	c2.236,0,3.722,0.29,4.455,0.869c0.733,0.579,0.907,1.715,0.525,3.415l-1.507,7.176c0.536-1.775,1.389-3.394,2.547-4.862
	c1.157-1.465,2.523-2.721,4.11-3.762c1.58-1.043,3.336-1.854,5.268-2.432c1.928-0.579,3.934-0.868,6.021-0.868
	c3.702,0,6.44,0.868,8.218,2.604c1.773,1.737,2.663,3.956,2.663,6.657c0,0.389-0.021,0.81-0.059,1.273
	c-0.04,0.463-0.099,0.928-0.173,1.39c1.078-3.548,3.2-6.426,6.365-8.625c3.162-2.201,6.831-3.3,10.999-3.3
	c4.242,0,7.274,1.119,9.09,3.359c1.812,2.238,2.406,5.21,1.791,8.912l-2.895,17.945c-0.231,1.313-0.461,2.662-0.692,4.052
	c-0.232,1.39-0.348,2.776-0.348,4.166c0,1.08,0.193,1.756,0.579,2.025c0.386,0.272,1.273,0.405,2.662,0.405
	c0.618,0,1.407-0.096,2.374-0.289c0.963-0.19,1.715-0.364,2.255-0.519c0.62,0.461,0.929,1.312,0.929,2.545
	C606.496,68.457,605.759,69.362,604.294,70.097L604.294,70.097z"/>
</svg>
