<?xml version="1.0" encoding="utf-8"?>
<!-- Generator: Adobe Illustrator 12.0.0, SVG Export Plug-In . SVG Version: 6.00 Build 51448)  -->
<!DOCTYPE svg PUBLIC "-//W3C//DTD SVG 1.1//EN" "http://www.w3.org/Graphics/SVG/1.1/DTD/svg11.dtd" [
	<!ENTITY ns_svg "http://www.w3.org/2000/svg">
	<!ENTITY ns_xlink "http://www.w3.org/1999/xlink">
]>
<svg  version="1.1" id="Capa_1" xmlns="&ns_svg;" xmlns:xlink="&ns_xlink;" width="606.496" height="122.713"
	 viewBox="0 0 606.496 122.713" overflow="visible" enable-background="new 0 0 606.496 122.713" xml:space="preserve">
<path fill="#2C2C2C" d="M44.683,63.44c0,1.39-0.25,2.566-0.75,3.529c-0.503,0.967-1.506,1.756-3.012,2.373
	c-1.502,0.62-3.606,1.081-6.308,1.39c-2.701,0.309-6.251,0.463-10.65,0.463c-4.631,0-8.393-0.116-11.287-0.348
	s-5.152-0.596-6.774-1.098c-1.62-0.504-2.719-1.196-3.297-2.086c-0.579-0.886-0.868-2.026-0.868-3.413
	c0-1.465,0.172-3.724,0.52-6.775c0.349-3.045,0.828-6.656,1.447-10.822c0.156-1.081,0.386-2.721,0.697-4.92
	c0.307-2.201,0.635-4.574,0.982-7.12c0.348-2.547,0.675-5.034,0.984-7.468c0.308-2.431,0.56-4.358,0.752-5.788
	c0.193-1.427,0.29-2.219,0.29-2.374L1.04,18.636c-0.386-0.693-0.655-1.348-0.811-1.967C0.075,16.052,0,15.321,0,14.47
	C0,12,1.136,10.285,3.413,9.32c2.275-0.965,6.079-1.447,11.405-1.447c2.392,0,4.283,0.114,5.671,0.344
	c1.388,0.234,2.45,0.542,3.184,0.927c0.733,0.388,1.216,0.868,1.447,1.446c0.23,0.58,0.349,1.217,0.349,1.911
	c0,0.849-0.041,1.679-0.118,2.489c-0.075,0.81-0.193,1.678-0.347,2.605L19.68,59.501h24.194
	C44.415,60.584,44.683,61.896,44.683,63.44L44.683,63.44z M98.922,69.631c-2.742,1.274-6.541,1.913-11.404,1.913
	c-2.241,0-4.035-0.504-5.383-1.508c-1.352-1.001-2.027-2.737-2.027-5.207c0-0.157,0.019-0.425,0.059-0.811
	c0.039-0.386,0.093-0.733,0.173-1.044c-1.313,3.012-3.28,5.171-5.905,6.483c-2.622,1.313-5.713,1.968-9.262,1.968
	c-5.555,0-9.723-1.447-12.5-4.342c-2.781-2.895-4.17-7.465-4.17-13.718c0-5.093,0.639-9.551,1.913-13.37
	c1.271-3.82,3.008-7.003,5.207-9.549c2.201-2.549,4.748-4.438,7.642-5.675c2.895-1.233,5.922-1.851,9.089-1.851
	c2.622,0,4.841,0.27,6.657,0.811c1.812,0.54,3.259,1.466,4.341,2.776c0.462-1.543,1.251-2.546,2.375-3.008
	c1.117-0.465,2.446-0.696,3.993-0.696c3.78,0,6.905,0.734,9.375,2.199l-3.355,25.702c-0.311,2.006-0.504,3.587-0.579,4.745
	c-0.08,1.158-0.117,2.085-0.117,2.78c0,0.618,0.134,1.1,0.407,1.447c0.268,0.345,0.827,0.521,1.677,0.521
	c0.539,0,1.217-0.039,2.026-0.118c0.809-0.075,1.523-0.188,2.143-0.347c1.158,0.926,1.736,2.24,1.736,3.938
	C103.032,66.373,101.66,68.361,98.922,69.631L98.922,69.631z M79.241,33.802c-0.889-0.076-1.795-0.117-2.722-0.117
	c-3.548,0-6.387,1.467-8.507,4.399c-2.125,2.935-3.184,7.294-3.184,13.082c0,3.473,0.579,5.868,1.737,7.177
	c1.158,1.312,2.933,1.968,5.324,1.968c2.701,0,4.862-0.886,6.483-2.661l3.357-23.153C80.958,34.113,80.127,33.882,79.241,33.802
	L79.241,33.802z M145.75,71.544c-2.857,0-4.882-0.519-6.078-1.548c-1.199-1.031-1.602-2.886-1.216-5.56l0.347-2.292
	c-1.698,3.058-3.9,5.366-6.598,6.934c-2.705,1.567-6.484,2.348-11.345,2.348c-4.169,0-7.353-0.868-9.552-2.604
	c-2.202-1.737-3.299-4.496-3.299-8.276c0-1.623,0.075-3.144,0.229-4.574c0.156-1.428,0.504-3.49,1.044-6.192l2.895-15.746
	l-5.327,0.116c-0.462-0.615-0.771-1.273-0.926-1.966c-0.155-0.697-0.23-1.43-0.23-2.202c0-2.546,1.175-4.341,3.531-5.381
	c2.353-1.044,6.115-1.565,11.287-1.565c3.858,0,6.346,0.565,7.467,1.685c1.119,1.122,1.484,2.885,1.099,5.285l-2.894,18.113
	c-0.308,1.628-0.58,3.292-0.81,4.996c-0.232,1.705-0.348,3.059-0.348,4.064c0,1.161,0.348,1.976,1.042,2.437
	c0.695,0.465,1.814,0.697,3.357,0.697c1.622,0,3.242-0.403,4.861-1.22c1.623-0.808,2.97-2.106,4.052-3.89l3.128-23.224
	c0.231-1.856,0.521-3.367,0.868-4.528c0.345-1.16,0.848-2.09,1.503-2.789c0.654-0.695,1.468-1.178,2.432-1.45
	c0.965-0.272,2.181-0.406,3.647-0.406c1.622,0,3.259,0.193,4.919,0.582c1.66,0.386,2.991,0.967,3.996,1.739l-3.707,27.638
	c-0.155,1.009-0.289,2.018-0.404,3.023c-0.116,1.005-0.175,2.01-0.175,3.015c0,1.006,0.616,1.51,1.854,1.51
	c0.538,0,1.175-0.039,1.909-0.114c0.734-0.077,1.447-0.193,2.143-0.35c1.233,0.922,1.852,2.223,1.852,3.902
	C162.303,68.946,156.785,71.544,145.75,71.544L145.75,71.544z M207.105,33.631c-0.541,1.119-1.158,2.063-1.854,2.835
	c-1.234-0.156-2.219-0.252-2.952-0.291c-0.734-0.038-1.447-0.058-2.14-0.058c-1.39,0-2.588,0.097-3.591,0.29
	c-1.001,0.193-1.987,0.658-2.952,1.389c-0.965,0.733-2.005,1.835-3.124,3.3c-1.121,1.468-2.489,3.512-4.112,6.136L183.374,70.5
	c-1.082,0.386-2.415,0.637-3.993,0.754c-1.584,0.114-2.994,0.172-4.228,0.172c-5.017,0-7.525-2.159-7.525-6.483
	c0-0.617,0.077-1.485,0.231-2.604c0.155-1.118,0.349-2.447,0.579-3.995l3.359-24.31l-5.327,0.116
	c-0.462-0.615-0.773-1.273-0.927-1.966c-0.154-0.697-0.23-1.43-0.23-2.202c0-2.546,1.175-4.341,3.532-5.381
	c2.353-1.044,6.115-1.565,11.286-1.565c3.394,0,5.672,0.407,6.83,1.217c1.157,0.809,1.542,2.18,1.157,4.11l-1.271,7.409
	c1.31-2.702,2.468-4.9,3.473-6.599c1.003-1.695,2.006-3.01,3.008-3.935c1.003-0.926,2.084-1.565,3.242-1.912
	c1.159-0.348,2.508-0.52,4.052-0.52c2.701,0,4.592,0.657,5.675,1.967c1.078,1.313,1.619,2.974,1.619,4.978
	C207.915,31.219,207.644,32.511,207.105,33.631L207.105,33.631z M240.213,13.833c-1.699,1.581-4.051,2.374-7.06,2.374
	c-2.164,0-4.051-0.482-5.674-1.447c-1.62-0.965-2.429-2.873-2.429-5.729c0-2.471,0.868-4.556,2.605-6.254
	c1.737-1.696,4.147-2.546,7.235-2.546c2.7,0,4.689,0.696,5.961,2.084c1.273,1.388,1.912,3.166,1.912,5.324
	C242.763,10.187,241.911,12.251,240.213,13.833L240.213,13.833z M233.326,23.442c1.196,0.272,2.102,0.692,2.721,1.271
	c0.618,0.579,1.003,1.315,1.158,2.201c0.153,0.889,0.153,1.909,0,3.067l-2.663,18.062c-0.386,2.701-0.75,4.939-1.099,6.715
	c-0.348,1.775-0.52,3.048-0.52,3.817c0,0.388,0.113,0.755,0.345,1.102c0.234,0.345,0.695,0.521,1.391,0.521
	c0.539,0,1.213-0.039,2.027-0.118c0.808-0.075,1.561-0.188,2.255-0.347c1.235,0.926,1.851,2.202,1.851,3.82
	c0,2.704-1.272,4.689-3.817,5.965c-2.549,1.271-6.64,1.908-12.273,1.908c-2.855,0-5.075-0.579-6.656-1.736
	c-1.583-1.158-2.375-2.97-2.375-5.439c0-1.004,0.076-2.219,0.23-3.649c0.156-1.426,0.311-2.757,0.465-3.993l3.935-22.574
	l-5.323,0.116c-0.464-0.615-0.775-1.273-0.927-1.966c-0.155-0.697-0.23-1.43-0.23-2.202c0-2.546,1.176-4.341,3.528-5.381
	c2.354-1.044,6.117-1.565,11.288-1.565C230.566,23.035,232.129,23.172,233.326,23.442L233.326,23.442z M296.939,69.808
	c-2.705,1.232-6.871,1.85-12.504,1.85c-2.471,0-4.514-0.579-6.135-1.743c-1.621-1.159-2.43-2.978-2.43-5.454
	c0-1.318,0.076-2.654,0.23-4.009c0.152-1.353,0.348-2.648,0.579-3.89c0.076-0.386,0.21-1.085,0.403-2.09
	c0.193-1.006,0.425-2.166,0.697-3.482c0.268-1.314,0.537-2.688,0.81-4.121c0.269-1.432,0.52-2.806,0.753-4.125
	c0.232-1.313,0.421-2.457,0.579-3.424c0.152-0.967,0.231-1.605,0.231-1.918c0-0.926-0.29-1.759-0.868-2.497
	c-0.579-0.733-1.874-1.102-3.878-1.102c-1.775,0-3.474,0.427-5.094,1.278c-1.622,0.851-3.086,2.208-4.399,4.063l-4.051,31.353
	c-1.082,0.389-2.412,0.64-3.993,0.759c-1.584,0.114-2.993,0.172-4.228,0.172c-5.017,0-7.524-2.165-7.524-6.501
	c0-0.619,0.076-1.492,0.234-2.613c0.152-1.123,0.344-2.459,0.579-4.005l3.356-24.387l-5.328,0.113
	c-0.461-0.611-0.771-1.261-0.923-1.947c-0.157-0.688-0.233-1.413-0.233-2.178c0-2.517,1.178-4.294,3.532-5.327
	c2.352-1.028,6.115-1.547,11.286-1.547c3.398,0,5.675,0.404,6.833,1.205c1.158,0.802,1.54,2.158,1.158,4.067l-0.697,4.007
	c2.005-3.286,4.301-5.709,6.889-7.277c2.583-1.567,6.153-2.35,10.707-2.35c4.708,0,8.104,0.947,10.188,2.838
	c2.085,1.891,3.125,4.687,3.125,8.394c0,1.387-0.096,2.911-0.289,4.571c-0.193,1.662-0.445,3.339-0.751,5.034
	c-0.31,1.699-0.638,3.342-0.985,4.92c-0.348,1.584-0.638,3.07-0.868,4.458c-0.154,1.003-0.311,2.047-0.462,3.126
	c-0.155,1.083-0.23,2.125-0.23,3.125c0,0.851,0.617,1.275,1.851,1.275c0.54,0,1.175-0.039,1.913-0.118
	c0.731-0.075,1.446-0.191,2.14-0.345c1.233,0.924,1.852,2.241,1.852,3.936C300.99,66.602,299.64,68.573,296.939,69.808
	L296.939,69.808z M355.979,32.184c-0.311,0.847-0.775,1.581-1.391,2.198c-0.85-0.075-1.698-0.117-2.548-0.117
	c-0.849,0-1.618,0-2.313,0c-0.617,0-1.196,0.08-1.736,0.234c-0.542,0.155-1.196,0.559-1.968,1.213
	c-0.772,0.657-1.7,1.661-2.776,3.011c-1.083,1.351-2.473,3.184-4.168,5.5l7.87,14.239c0.307,0.461,0.639,0.869,0.982,1.216
	c0.35,0.345,0.832,0.521,1.447,0.521c0.542,0,1.196-0.039,1.972-0.118c0.768-0.075,1.503-0.188,2.198-0.347
	c0.615,0.388,1.04,0.948,1.273,1.681c0.231,0.733,0.345,1.486,0.345,2.258c0,2.701-1.29,4.668-3.876,5.902
	c-2.588,1.235-6.31,1.853-11.173,1.853c-1.157,0-2.142-0.115-2.95-0.348c-0.813-0.231-1.526-0.596-2.142-1.1
	c-0.622-0.499-1.198-1.194-1.736-2.084c-0.543-0.886-1.121-1.985-1.739-3.297l-7.755-15.863L320.901,70.5
	c-1.08,0.386-2.414,0.637-3.994,0.754c-1.584,0.114-2.993,0.172-4.226,0.172c-4.942,0-7.407-2.159-7.407-6.483
	c0-1.235,0.229-3.433,0.692-6.599L312.45,9.03c0.461-3.628,1.368-6.04,2.721-7.236C316.52,0.598,318.663,0,321.595,0
	c1.623,0,3.184,0.192,4.69,0.578c1.506,0.387,2.76,0.966,3.761,1.737l-5.439,40.75c3.474-4.786,6.23-8.528,8.276-11.229
	c2.045-2.701,3.801-4.726,5.268-6.077c1.464-1.351,2.798-2.181,3.992-2.491c1.196-0.307,2.682-0.462,4.459-0.462
	c3.703,0,6.271,0.52,7.699,1.564c1.429,1.04,2.143,2.605,2.143,4.687C356.443,30.292,356.286,31.333,355.979,32.184L355.979,32.184z
	 M410.33,69.631c-2.739,1.274-6.541,1.913-11.401,1.913c-2.24,0-4.035-0.504-5.386-1.508c-1.349-1.001-2.026-2.737-2.026-5.207
	c0-0.157,0.021-0.425,0.058-0.811c0.039-0.386,0.099-0.733,0.176-1.044c-1.316,3.012-3.282,5.171-5.906,6.483
	c-2.622,1.313-5.71,1.968-9.26,1.968c-5.558,0-9.724-1.447-12.504-4.342c-2.776-2.895-4.166-7.465-4.166-13.718
	c0-5.093,0.637-9.551,1.91-13.37c1.273-3.82,3.011-7.003,5.208-9.549c2.202-2.549,4.749-4.438,7.644-5.675
	c2.895-1.233,5.922-1.851,9.086-1.851c2.622,0,4.844,0.27,6.655,0.811c1.813,0.54,3.261,1.466,4.342,2.776
	c0.465-1.543,1.256-2.546,2.373-3.008c1.119-0.465,2.45-0.696,3.994-0.696c3.78,0,6.908,0.734,9.38,2.199l-3.359,25.702
	c-0.307,2.006-0.502,3.587-0.581,4.745c-0.075,1.158-0.111,2.085-0.111,2.78c0,0.618,0.133,1.1,0.401,1.447
	c0.274,0.345,0.831,0.521,1.683,0.521c0.538,0,1.214-0.039,2.026-0.118c0.808-0.075,1.521-0.188,2.14-0.347
	c1.157,0.926,1.736,2.24,1.736,3.938C414.44,66.373,413.068,68.361,410.33,69.631L410.33,69.631z M390.648,33.802
	c-0.886-0.076-1.792-0.117-2.719-0.117c-3.553,0-6.387,1.467-8.51,4.399c-2.122,2.935-3.182,7.294-3.182,13.082
	c0,3.473,0.577,5.868,1.734,7.177c1.158,1.312,2.934,1.968,5.326,1.968c2.701,0,4.862-0.886,6.483-2.661l3.357-23.153
	C392.37,34.113,391.538,33.882,390.648,33.802L390.648,33.802z M432.502,69.458c-1.083,0.928-2.588,1.389-4.518,1.389
	c-1.39,0-2.545-0.328-3.474-0.983c-0.926-0.656-1.39-1.754-1.39-3.298s0.539-2.819,1.621-3.823c1.081-1.001,2.627-1.505,4.631-1.505
	c1.698,0,2.914,0.389,3.647,1.158c0.731,0.771,1.1,1.815,1.1,3.126C434.12,67.22,433.578,68.532,432.502,69.458L432.502,69.458z
	 M478.053,30.736c-0.27,0.579-0.711,1.062-1.331,1.447c-1.392-0.542-2.895-0.945-4.518-1.218c-1.616-0.268-3.664-0.405-6.134-0.405
	c-2.315,0-4.534,0.405-6.657,1.213c-2.12,0.806-3.956,2.02-5.497,3.634c-1.546,1.617-2.778,3.674-3.705,6.174
	c-0.928,2.499-1.387,5.479-1.387,8.942c0,5.462,1.001,9.384,3.008,11.771c2.007,2.382,5.054,3.573,9.146,3.573
	c2.391,0,4.766-0.231,7.115-0.692c2.354-0.465,4.767-1.273,7.236-2.434c0.389,0.312,0.697,0.715,0.929,1.219
	c0.229,0.501,0.347,0.981,0.347,1.446c0,1.804-1.254,3.278-3.763,4.424c-2.506,1.138-6.848,1.713-13.022,1.713
	c-6.021,0-10.537-1.641-13.544-4.921c-3.012-3.28-4.517-7.931-4.517-13.951c0-8.721,2.217-15.629,6.656-20.724
	c4.437-5.093,10.864-7.638,19.277-7.638c4.009,0,6.807,0.386,8.394,1.156c1.58,0.773,2.371,1.93,2.371,3.474
	C478.458,29.557,478.323,30.158,478.053,30.736L478.053,30.736z M524.531,54.699c-1.081,3.435-2.681,6.387-4.803,8.854
	c-2.123,2.471-4.709,4.399-7.755,5.789c-3.051,1.39-6.544,2.084-10.478,2.084c-11.966,0-17.943-6.521-17.943-19.563
	c0-4.014,0.596-7.718,1.794-11.114c1.196-3.394,2.875-6.289,5.034-8.684c2.161-2.39,4.747-4.262,7.757-5.615
	c3.009-1.349,6.327-2.026,9.955-2.026c3.319,0,6.139,0.447,8.452,1.333c2.317,0.888,4.188,2.16,5.612,3.821
	c1.431,1.66,2.453,3.665,3.07,6.018c0.617,2.354,0.927,4.959,0.927,7.815C526.154,47.502,525.613,51.264,524.531,54.699
	L524.531,54.699z M516.439,33.583c-1.998-2.632-5.3-3.949-9.916-3.949c-2.536,0-4.807,0.603-6.801,1.8
	c-2,1.202-3.711,2.769-5.135,4.704c-1.42,1.935-2.498,4.164-3.227,6.678c-0.731,2.519-1.096,5.051-1.096,7.606
	c0,5.5,0.999,9.506,2.997,12.021c2,2.518,5.345,3.773,10.032,3.773c2.613,0,4.92-0.619,6.918-1.856
	c2.001-1.239,3.69-2.866,5.075-4.878c1.383-2.011,2.421-4.257,3.113-6.735c0.69-2.479,1.037-4.993,1.037-7.549
	C519.438,40.088,518.439,36.216,516.439,33.583L516.439,33.583z M604.294,70.097c-1.466,0.733-3.934,1.098-7.407,1.098
	c-2.163,0-3.782-0.423-4.862-1.273c-1.081-0.847-1.623-2.391-1.623-4.631c0-0.848,0.04-1.87,0.118-3.066
	c0.076-1.196,0.27-2.568,0.578-4.112c0.692-4.088,1.273-7.444,1.739-10.069c0.459-2.623,0.883-5.114,1.271-7.467
	c0.384-2.353,0.576-3.839,0.576-4.458c0.157-1.854-0.251-3.299-1.213-4.341c-0.968-1.04-2.801-1.563-5.5-1.563
	c-2.472,0-5.094,0.926-7.87,2.779c-2.781,1.851-5.21,4.593-7.296,8.217l-3.819,29.406c-0.617,0.389-1.697,0.579-3.243,0.579
	c-1.542,0-2.507-0.309-2.895-0.926c-0.384-0.618-0.577-1.465-0.577-2.548c0-1.62,0.133-3.241,0.407-4.86
	c0.269-1.623,0.52-3.205,0.751-4.749l3.01-20.954c0.386-2.158,0.136-3.856-0.75-5.093c-0.89-1.232-2.803-1.852-5.735-1.852
	c-2.468,0-5.111,0.926-7.929,2.779c-2.814,1.851-5.266,4.593-7.35,8.217l-0.811,6.254c-0.229,1.85-0.521,4.014-0.868,6.481
	c-0.35,2.474-0.675,4.844-0.984,7.121c-0.307,2.277-0.56,4.303-0.752,6.077c-0.193,1.774-0.292,2.933-0.292,3.473
	c-0.384,0.156-0.827,0.29-1.329,0.403c-0.502,0.118-1.177,0.176-2.024,0.176c-1.548,0-2.491-0.309-2.838-0.926
	c-0.348-0.618-0.521-1.465-0.521-2.548c0-1.62,0.133-3.241,0.405-4.86c0.269-1.623,0.523-3.205,0.751-4.749l3.822-27.435
	l-7.176,0.23c-0.543-0.538-0.811-1.194-0.811-1.967c0-1.313,0.75-2.257,2.258-2.835c1.505-0.579,4.109-0.869,7.813-0.869
	c2.236,0,3.722,0.29,4.455,0.869c0.733,0.579,0.907,1.715,0.525,3.415l-1.507,7.176c0.536-1.775,1.389-3.394,2.547-4.862
	c1.157-1.465,2.523-2.722,4.11-3.763c1.58-1.043,3.336-1.854,5.268-2.432c1.928-0.579,3.934-0.868,6.021-0.868
	c3.702,0,6.44,0.868,8.218,2.604c1.773,1.737,2.663,3.956,2.663,6.657c0,0.388-0.021,0.81-0.059,1.273
	c-0.04,0.463-0.099,0.928-0.173,1.39c1.078-3.548,3.2-6.426,6.365-8.625c3.162-2.201,6.831-3.3,10.999-3.3
	c4.242,0,7.274,1.119,9.09,3.359c1.812,2.238,2.406,5.21,1.791,8.913l-2.895,17.945c-0.231,1.312-0.461,2.662-0.692,4.051
	c-0.232,1.389-0.348,2.776-0.348,4.166c0,1.08,0.193,1.756,0.579,2.025c0.386,0.272,1.273,0.405,2.662,0.405
	c0.618,0,1.407-0.096,2.374-0.289c0.963-0.19,1.715-0.364,2.255-0.519c0.62,0.461,0.929,1.312,0.929,2.545
	C606.496,68.457,605.759,69.362,604.294,70.097L604.294,70.097z"/>
<path fill="#2C2C2C" d="M106.701,114.032h7.168c0.093,0.193,0.143,0.444,0.143,0.755c0,0.242-0.066,0.434-0.197,0.579
	c-0.133,0.144-0.414,0.257-0.846,0.343c-0.432,0.082-1.047,0.138-1.838,0.161c-0.793,0.023-1.848,0.034-3.169,0.034
	c-0.863,0-1.561-0.011-2.088-0.034c-0.529-0.023-0.95-0.054-1.263-0.093c-0.309-0.034-0.538-0.074-0.684-0.124
	c-0.144-0.047-0.25-0.097-0.324-0.144c-0.214-0.12-0.321-0.434-0.321-0.939c0-0.381,0.051-1.119,0.161-2.212
	c0.107-1.094,0.295-2.661,0.558-4.7c0.193-1.37,0.384-2.8,0.577-4.286c0.193-1.489,0.396-2.954,0.613-4.395l-2.341-0.034
	c-0.097-0.17-0.146-0.376-0.146-0.615c0-0.142,0.038-0.285,0.107-0.432c0.073-0.144,0.216-0.264,0.433-0.36
	c0.216-0.096,0.529-0.173,0.939-0.233c0.405-0.058,0.935-0.092,1.583-0.092c0.407,0,0.738,0.013,0.99,0.038
	c0.253,0.023,0.438,0.064,0.558,0.127c0.12,0.058,0.199,0.137,0.237,0.233c0.035,0.097,0.041,0.217,0.018,0.36l-1.91,15.271
	c-0.049,0.335-0.014,0.554,0.108,0.646C105.885,113.983,106.198,114.032,106.701,114.032L106.701,114.032z M121.913,109.133
	c-0.553,0-1.132-0.018-1.735-0.054c-0.602-0.037-1.215-0.101-1.845-0.197c-0.023,0.144-0.035,0.287-0.035,0.431
	c0,0.122,0,0.24,0,0.36c0,3.124,1.284,4.685,3.853,4.685c0.793,0,1.584-0.086,2.378-0.255c0.792-0.165,1.571-0.434,2.341-0.791
	c0.29,0.216,0.433,0.493,0.433,0.829c0,0.479-0.421,0.931-1.26,1.351c-0.842,0.419-2.221,0.629-4.143,0.629
	c-3.795,0-5.691-1.996-5.691-5.993c0-1.299,0.168-2.491,0.505-3.573c0.336-1.083,0.828-2.012,1.477-2.783
	c0.648-0.768,1.453-1.364,2.411-1.786c0.961-0.42,2.079-0.63,3.35-0.63c0.817,0,1.498,0.09,2.035,0.271
	c0.542,0.181,0.974,0.421,1.299,0.721c0.324,0.305,0.558,0.665,0.701,1.087c0.144,0.423,0.217,0.875,0.217,1.357
	C128.203,107.686,126.106,109.133,121.913,109.133L121.913,109.133z M125.66,103.533c-0.399-0.373-1.103-0.56-2.117-0.56
	c-0.456,0-0.942,0.073-1.447,0.217c-0.505,0.146-0.987,0.386-1.447,0.723c-0.458,0.336-0.874,0.791-1.249,1.367
	c-0.375,0.577-0.657,1.295-0.85,2.159c0.409,0.075,0.924,0.127,1.538,0.165c0.615,0.034,1.175,0.054,1.683,0.054
	c1.664,0,2.827-0.223,3.49-0.667c0.664-0.445,0.997-1.084,0.997-1.927C126.258,104.414,126.059,103.906,125.66,103.533
	L125.66,103.533z M139.639,103.389c-0.301,0.156-0.813,0.233-1.532,0.233c-0.6,0-1.202-0.006-1.8-0.017
	c-0.6-0.013-1.203-0.02-1.802-0.02l-0.936,7.599c-0.073,0.482-0.107,0.976-0.107,1.479c0,0.696,0.144,1.164,0.429,1.401
	c0.29,0.24,0.77,0.362,1.442,0.362c0.599,0,1.23-0.139,1.892-0.413c0.66-0.279,1.241-0.558,1.747-0.847
	c0.384,0.144,0.577,0.396,0.577,0.757c0,0.478-0.211,0.855-0.632,1.134c-0.42,0.274-0.906,0.497-1.458,0.667
	c-0.553,0.167-1.124,0.274-1.711,0.323c-0.587,0.048-1.038,0.071-1.351,0.071c-1.128,0-1.949-0.224-2.467-0.667
	c-0.518-0.444-0.775-1.243-0.775-2.395c0-0.434,0.034-0.852,0.108-1.261c0.312-2.736,0.672-5.477,1.082-8.212l-1.839,0.036
	c-0.143-0.144-0.217-0.347-0.217-0.61c0-0.434,0.194-0.723,0.579-0.866c0.384-0.144,0.96-0.24,1.728-0.288l0.289-2.737
	c0.047-0.36,0.161-0.685,0.343-0.972c0.178-0.289,0.473-0.433,0.879-0.433c0.457,0,0.854,0.109,1.19,0.326l-0.576,3.815l5.187-0.036
	c0.047,0.097,0.09,0.21,0.125,0.341c0.035,0.133,0.056,0.249,0.056,0.344C140.089,102.939,139.937,103.233,139.639,103.389
	L139.639,103.389z M152.765,114.032h7.169c0.092,0.193,0.143,0.444,0.143,0.755c0,0.242-0.067,0.434-0.198,0.579
	c-0.132,0.144-0.413,0.257-0.846,0.343c-0.432,0.082-1.046,0.138-1.838,0.161c-0.792,0.023-1.848,0.034-3.169,0.034
	c-0.862,0-1.561-0.011-2.088-0.034c-0.528-0.023-0.95-0.054-1.262-0.093c-0.31-0.034-0.539-0.074-0.685-0.124
	c-0.144-0.047-0.251-0.097-0.324-0.144c-0.214-0.12-0.321-0.434-0.321-0.939c0-0.381,0.052-1.119,0.161-2.212
	c0.107-1.094,0.295-2.661,0.558-4.7c0.193-1.37,0.383-2.8,0.577-4.286c0.193-1.489,0.397-2.954,0.613-4.395l-2.341-0.034
	c-0.097-0.17-0.146-0.376-0.146-0.615c0-0.142,0.039-0.285,0.108-0.432c0.073-0.144,0.215-0.264,0.432-0.36
	c0.216-0.096,0.529-0.173,0.939-0.233c0.405-0.058,0.935-0.092,1.584-0.092c0.405,0,0.736,0.013,0.988,0.038
	c0.253,0.023,0.438,0.064,0.557,0.127c0.12,0.058,0.2,0.137,0.237,0.233c0.035,0.097,0.042,0.217,0.018,0.36l-1.909,15.271
	c-0.05,0.335-0.014,0.554,0.108,0.646C151.95,113.983,152.263,114.032,152.765,114.032L152.765,114.032z M175.635,115.635
	c-0.457,0.228-1.224,0.342-2.304,0.342c-0.603,0-1.052-0.127-1.35-0.378c-0.302-0.255-0.45-0.703-0.45-1.351
	c0-0.337,0.047-0.746,0.143-1.225c-0.409,0.959-1.038,1.698-1.891,2.213c-0.851,0.517-1.926,0.774-3.221,0.774
	c-1.373,0-2.438-0.412-3.208-1.241c-0.77-0.828-1.152-2.179-1.152-4.053c0-1.535,0.199-2.886,0.593-4.052
	c0.399-1.164,0.924-2.138,1.585-2.918c0.661-0.776,1.429-1.368,2.307-1.763c0.874-0.396,1.78-0.596,2.717-0.596
	c1.033,0,1.808,0.135,2.322,0.398c0.518,0.262,0.86,0.694,1.029,1.295c0.093-0.624,0.229-1.057,0.395-1.295
	c0.167-0.24,0.467-0.36,0.9-0.36c0.24,0,0.433,0.028,0.576,0.088c0.143,0.061,0.301,0.152,0.469,0.272l-1.153,8.355
	c-0.12,0.911-0.215,1.621-0.286,2.124c-0.073,0.502-0.108,0.911-0.108,1.225c0,0.337,0.059,0.547,0.179,0.628
	c0.12,0.086,0.409,0.129,0.865,0.129c0.166,0,0.4-0.032,0.701-0.09c0.301-0.061,0.535-0.114,0.702-0.165
	c0.216,0.171,0.324,0.435,0.324,0.793C176.319,115.125,176.091,115.407,175.635,115.635L175.635,115.635z M169.73,103.012
	c-1.681,0-2.991,0.634-3.927,1.903c-0.938,1.268-1.405,2.968-1.405,5.097c0,1.509,0.221,2.626,0.666,3.357
	c0.445,0.731,1.254,1.096,2.432,1.096c0.31,0,0.65-0.056,1.009-0.163c0.359-0.105,0.719-0.258,1.079-0.448
	c0.362-0.193,0.704-0.433,1.03-0.718c0.322-0.288,0.605-0.613,0.845-0.968l1.188-8.512
	C171.855,103.224,170.881,103.012,169.73,103.012L169.73,103.012z M190.907,114.249c0.19,0,0.439-0.032,0.737-0.09
	c0.3-0.061,0.534-0.114,0.703-0.165c0.191,0.147,0.288,0.409,0.288,0.793c0,0.339-0.234,0.62-0.701,0.849
	c-0.469,0.228-1.244,0.342-2.324,0.342c-0.673,0-1.17-0.114-1.494-0.342c-0.324-0.229-0.485-0.617-0.485-1.17
	c0-0.362,0.011-0.66,0.035-0.9c0.023-0.24,0.073-0.506,0.144-0.796c-0.457,1.106-1.188,1.93-2.196,2.468
	c-1.01,0.54-2.052,0.813-3.134,0.813c-1.202,0-2.114-0.276-2.736-0.829c-0.626-0.554-0.819-1.574-0.579-3.06l1.333-8.789
	l-2.234,0.073c-0.167-0.169-0.252-0.375-0.252-0.615c0-0.405,0.235-0.701,0.702-0.881c0.471-0.181,1.28-0.271,2.432-0.271
	c0.697,0,1.153,0.09,1.369,0.271c0.217,0.18,0.278,0.533,0.181,1.063l-1.368,9.506c-0.124,0.723,0,1.207,0.359,1.458
	c0.36,0.251,0.936,0.382,1.728,0.382c0.722,0,1.497-0.255,2.323-0.757c0.828-0.508,1.557-1.261,2.178-2.271l1.226-7.527
	c0.143-0.911,0.308-1.499,0.485-1.765c0.18-0.264,0.511-0.395,0.991-0.395c0.409,0,0.757,0.12,1.046,0.358l-1.441,8.932
	c-0.073,0.433-0.146,0.9-0.217,1.406c-0.073,0.502-0.107,0.888-0.107,1.151c0,0.337,0.058,0.547,0.178,0.628
	C190.197,114.206,190.475,114.249,190.907,114.249L190.907,114.249z M205.421,103.228c-0.096,0.165-0.205,0.299-0.324,0.395
	c-0.24-0.047-0.553-0.081-0.939-0.109c-0.383-0.023-0.78-0.034-1.187-0.034c-0.505,0-1.146,0.416-1.926,1.241
	c-0.78,0.83-1.591,2.048-2.432,3.656L198.434,110c-0.073,0.598-0.156,1.207-0.253,1.817c-0.097,0.611-0.179,1.194-0.252,1.748
	c-0.074,0.553-0.132,1.026-0.181,1.421c-0.047,0.396-0.071,0.667-0.071,0.811c-0.096,0.05-0.216,0.09-0.359,0.124
	c-0.147,0.039-0.351,0.057-0.614,0.057c-0.479,0-0.787-0.097-0.918-0.29c-0.131-0.19-0.199-0.454-0.199-0.791
	c0-0.504,0.044-1.01,0.126-1.512c0.084-0.506,0.163-0.997,0.234-1.477l1.19-8.536l-2.234,0.073c-0.166-0.169-0.25-0.362-0.25-0.579
	c0-0.431,0.233-0.737,0.701-0.917c0.468-0.181,1.281-0.271,2.434-0.271c0.695,0,1.157,0.09,1.385,0.271
	c0.227,0.18,0.294,0.533,0.198,1.063l-0.757,3.926c0.505-1.18,0.955-2.119,1.35-2.826c0.399-0.712,0.793-1.259,1.191-1.641
	c0.395-0.384,0.797-0.639,1.204-0.759c0.41-0.118,0.866-0.178,1.371-0.178c0.743,0,1.236,0.109,1.477,0.323
	c0.24,0.215,0.36,0.493,0.36,0.828C205.565,102.881,205.516,103.059,205.421,103.228L205.421,103.228z M212.119,97.86
	c-0.289,0.264-0.708,0.398-1.261,0.398c-0.409,0-0.739-0.092-0.99-0.272c-0.251-0.178-0.377-0.486-0.377-0.917
	c0-0.434,0.154-0.787,0.467-1.062c0.311-0.278,0.743-0.416,1.295-0.416c0.482,0,0.817,0.107,1.01,0.326
	c0.193,0.214,0.289,0.502,0.289,0.861C212.552,97.238,212.409,97.596,212.119,97.86L212.119,97.86z M211.038,103.012l-0.753,5.58
	c-0.17,1.201-0.313,2.245-0.433,3.133c-0.12,0.89-0.182,1.478-0.182,1.767c0,0.337,0.062,0.547,0.182,0.628
	c0.12,0.086,0.406,0.129,0.865,0.129c0.167,0,0.4-0.032,0.702-0.09c0.298-0.061,0.532-0.114,0.701-0.165
	c0.193,0.147,0.29,0.409,0.29,0.793c0,0.339-0.231,0.62-0.684,0.849c-0.458,0.228-1.225,0.342-2.307,0.342
	c-0.673,0-1.175-0.131-1.512-0.399c-0.339-0.262-0.506-0.741-0.506-1.437c0-0.506,0.073-1.248,0.216-2.233l1.225-8.536l-2.269,0.073
	c-0.169-0.147-0.251-0.337-0.251-0.579c0-0.407,0.234-0.707,0.701-0.9c0.469-0.19,1.278-0.287,2.43-0.287
	c0.696,0,1.155,0.09,1.371,0.271C211.038,102.128,211.11,102.482,211.038,103.012L211.038,103.012z M228.759,115.635
	c-0.456,0.228-1.224,0.342-2.307,0.342c-0.671,0-1.181-0.131-1.529-0.399c-0.347-0.262-0.523-0.741-0.523-1.437
	c0-0.576,0.085-1.32,0.252-2.233c0.215-1.271,0.397-2.318,0.541-3.133c0.143-0.816,0.274-1.591,0.396-2.326
	c0.12-0.729,0.178-1.192,0.178-1.385c0.05-0.577-0.09-1.025-0.412-1.351c-0.324-0.324-0.909-0.485-1.749-0.485
	c-0.383,0-0.786,0.069-1.207,0.217c-0.418,0.142-0.845,0.358-1.277,0.646c-0.433,0.289-0.849,0.649-1.243,1.08
	c-0.397,0.434-0.75,0.925-1.062,1.478l-0.29,1.944c-0.073,0.577-0.161,1.25-0.268,2.018c-0.109,0.768-0.211,1.508-0.308,2.215
	c-0.096,0.708-0.175,1.34-0.233,1.892c-0.062,0.553-0.091,0.913-0.091,1.08c-0.12,0.05-0.257,0.09-0.414,0.124
	c-0.157,0.039-0.367,0.057-0.629,0.057c-0.482,0-0.775-0.097-0.883-0.29c-0.108-0.19-0.164-0.454-0.164-0.791
	c0-0.504,0.05-1.01,0.146-1.512c0.095-0.506,0.167-0.997,0.217-1.477l1.117-8.536l-2.164,0.073
	c-0.166-0.169-0.251-0.375-0.251-0.615c0-0.405,0.234-0.701,0.701-0.881c0.467-0.181,1.281-0.271,2.434-0.271
	c0.695,0,1.157,0.09,1.385,0.271c0.227,0.18,0.283,0.533,0.163,1.063l-0.467,2.233c0.167-0.553,0.441-1.059,0.828-1.516
	c0.384-0.454,0.828-0.845,1.333-1.168c0.502-0.324,1.062-0.577,1.674-0.757c0.611-0.183,1.243-0.271,1.889-0.271
	c1.321,0,2.262,0.348,2.83,1.044c0.562,0.697,0.748,1.621,0.555,2.774l-0.9,5.581c-0.094,0.723-0.178,1.261-0.251,1.623
	c-0.024,0.188-0.041,0.354-0.054,0.484c-0.012,0.131-0.017,0.283-0.017,0.45c0,0.337,0.058,0.547,0.178,0.628
	c0.12,0.086,0.409,0.129,0.866,0.129c0.166,0,0.4-0.032,0.701-0.09c0.3-0.061,0.535-0.114,0.701-0.165
	c0.193,0.147,0.29,0.409,0.29,0.793C229.443,115.125,229.216,115.407,228.759,115.635L228.759,115.635z M244.067,103.662
	c-0.218-0.052-0.523-0.093-0.92-0.129c-0.397-0.036-0.8-0.054-1.207-0.054c-0.29,0-0.547,0.048-0.774,0.144
	c-0.229,0.097-0.495,0.301-0.792,0.613c-0.301,0.309-0.655,0.744-1.064,1.295c-0.405,0.554-0.911,1.273-1.512,2.161l3.746,5.8
	c0.193,0.264,0.359,0.457,0.506,0.574c0.143,0.123,0.359,0.183,0.647,0.183c0.19,0,0.45-0.021,0.771-0.056
	c0.326-0.034,0.57-0.075,0.741-0.127c0.191,0.145,0.289,0.41,0.289,0.794c0,0.24-0.198,0.49-0.597,0.757
	c-0.395,0.264-1.072,0.395-2.035,0.395c-0.313,0-0.563-0.018-0.757-0.052c-0.19-0.039-0.365-0.109-0.521-0.217
	c-0.156-0.107-0.306-0.251-0.449-0.433c-0.143-0.181-0.301-0.414-0.469-0.701l-3.385-5.225c-0.362-0.48-0.541-0.959-0.541-1.439
	c1.009-1.561,1.831-2.774,2.468-3.638c0.634-0.862,1.192-1.501,1.675-1.908c0.48-0.407,0.93-0.647,1.351-0.721
	c0.418-0.073,0.917-0.109,1.494-0.109c0.718,0,1.199,0.103,1.441,0.309c0.24,0.204,0.36,0.474,0.36,0.809
	C244.535,103.095,244.376,103.421,244.067,103.662L244.067,103.662z M233.673,115.92c-0.131,0.039-0.33,0.057-0.593,0.057
	c-0.479,0-0.781-0.097-0.901-0.29c-0.119-0.19-0.18-0.454-0.18-0.791c0-0.167,0.015-0.391,0.038-0.669
	c0.023-0.272,0.047-0.56,0.069-0.859c0.028-0.303,0.057-0.601,0.091-0.903c0.039-0.3,0.08-0.57,0.126-0.808l2.017-14.731
	c0.12-0.817,0.272-1.364,0.45-1.641c0.182-0.274,0.511-0.416,0.992-0.416c0.239,0,0.425,0.021,0.559,0.056
	c0.13,0.034,0.268,0.104,0.415,0.2l-2.739,20.672C233.919,115.846,233.805,115.886,233.673,115.92L233.673,115.92z M259.624,115.635
	c-0.456,0.228-1.224,0.342-2.306,0.342c-0.6,0-1.05-0.127-1.352-0.378c-0.297-0.255-0.448-0.703-0.448-1.351
	c0-0.337,0.049-0.746,0.145-1.225c-0.409,0.959-1.041,1.698-1.891,2.213c-0.854,0.517-1.926,0.774-3.225,0.774
	c-1.368,0-2.439-0.412-3.204-1.241c-0.77-0.828-1.155-2.179-1.155-4.053c0-1.535,0.198-2.886,0.597-4.052
	c0.395-1.164,0.923-2.138,1.584-2.918c0.66-0.776,1.426-1.368,2.303-1.763c0.877-0.396,1.784-0.596,2.719-0.596
	c1.035,0,1.807,0.135,2.324,0.398c0.518,0.262,0.86,0.694,1.027,1.295c0.096-0.624,0.227-1.057,0.396-1.295
	c0.167-0.24,0.468-0.36,0.901-0.36c0.239,0,0.432,0.028,0.576,0.088c0.143,0.061,0.298,0.152,0.468,0.272l-1.151,8.355
	c-0.12,0.911-0.217,1.621-0.29,2.124c-0.071,0.502-0.109,0.911-0.109,1.225c0,0.337,0.062,0.547,0.182,0.628
	c0.12,0.086,0.406,0.129,0.866,0.129c0.165,0,0.399-0.032,0.701-0.09c0.298-0.061,0.532-0.114,0.701-0.165
	c0.216,0.171,0.324,0.435,0.324,0.793C260.308,115.125,260.081,115.407,259.624,115.635L259.624,115.635z M253.716,103.012
	c-1.681,0-2.988,0.634-3.927,1.903c-0.935,1.268-1.402,2.968-1.402,5.097c0,1.509,0.222,2.626,0.667,3.357
	c0.444,0.731,1.254,1.096,2.431,1.096c0.311,0,0.647-0.056,1.005-0.163c0.363-0.105,0.723-0.258,1.083-0.448
	c0.359-0.193,0.701-0.433,1.025-0.718c0.326-0.288,0.609-0.613,0.849-0.968l1.187-8.512
	C255.842,103.224,254.871,103.012,253.716,103.012L253.716,103.012z M291.606,115.635c-0.456,0.228-1.224,0.342-2.307,0.342
	c-0.671,0-1.175-0.131-1.511-0.399c-0.335-0.262-0.505-0.741-0.505-1.437c0-0.266,0.014-0.583,0.037-0.956
	c0.023-0.371,0.083-0.798,0.179-1.277c0.216-1.271,0.397-2.318,0.541-3.133c0.143-0.816,0.278-1.591,0.397-2.326
	c0.12-0.729,0.178-1.192,0.178-1.385c0.05-0.577-0.075-1.025-0.376-1.351c-0.301-0.324-0.871-0.485-1.709-0.485
	c-0.77,0-1.584,0.285-2.451,0.862c-0.864,0.577-1.619,1.428-2.269,2.558l-1.19,9.148c-0.193,0.118-0.526,0.181-1.009,0.181
	c-0.479,0-0.779-0.097-0.899-0.29c-0.12-0.19-0.178-0.454-0.178-0.791c0-0.504,0.041-1.01,0.125-1.512
	c0.085-0.506,0.161-0.997,0.233-1.477l0.937-6.519c0.12-0.673,0.043-1.202-0.234-1.586c-0.275-0.382-0.873-0.575-1.784-0.575
	c-0.77,0-1.591,0.285-2.468,0.862c-0.875,0.577-1.638,1.428-2.285,2.558l-0.252,1.944c-0.074,0.577-0.164,1.25-0.271,2.018
	c-0.109,0.768-0.211,1.508-0.304,2.215c-0.097,0.708-0.176,1.34-0.234,1.892c-0.062,0.553-0.091,0.913-0.091,1.08
	c-0.12,0.05-0.26,0.09-0.415,0.124c-0.156,0.039-0.367,0.057-0.629,0.057c-0.482,0-0.774-0.097-0.882-0.29
	c-0.109-0.19-0.164-0.454-0.164-0.791c0-0.504,0.044-1.01,0.125-1.512c0.086-0.506,0.164-0.997,0.234-1.477l1.19-8.536l-2.233,0.073
	c-0.167-0.169-0.252-0.375-0.252-0.615c0-0.405,0.233-0.701,0.702-0.881c0.467-0.181,1.28-0.271,2.432-0.271
	c0.696,0,1.158,0.09,1.385,0.271c0.228,0.18,0.284,0.533,0.164,1.063l-0.471,2.233c0.169-0.553,0.433-1.059,0.792-1.516
	c0.362-0.454,0.786-0.845,1.281-1.168c0.491-0.324,1.038-0.577,1.636-0.757c0.603-0.183,1.227-0.271,1.875-0.271
	c1.152,0,2.006,0.271,2.558,0.811c0.552,0.54,0.828,1.23,0.828,2.068c0,0.12-0.006,0.254-0.018,0.399
	c-0.011,0.142-0.029,0.285-0.056,0.433c0.336-1.106,0.997-2,1.983-2.684c0.984-0.685,2.125-1.027,3.42-1.027
	c1.322,0,2.263,0.348,2.83,1.044c0.562,0.697,0.748,1.621,0.559,2.774l-0.901,5.581c-0.073,0.409-0.146,0.83-0.215,1.261
	c-0.075,0.431-0.109,0.864-0.109,1.297c0,0.337,0.059,0.547,0.178,0.628c0.12,0.086,0.397,0.129,0.831,0.129
	c0.19,0,0.437-0.032,0.737-0.09c0.302-0.061,0.536-0.114,0.701-0.165c0.193,0.147,0.29,0.409,0.29,0.793
	C292.29,115.125,292.063,115.407,291.606,115.635L291.606,115.635z M307.993,115.635c-0.457,0.228-1.223,0.342-2.305,0.342
	c-0.599,0-1.049-0.127-1.352-0.378c-0.3-0.255-0.449-0.703-0.449-1.351c0-0.337,0.047-0.746,0.143-1.225
	c-0.409,0.959-1.037,1.698-1.891,2.213c-0.851,0.517-1.926,0.774-3.221,0.774c-1.368,0-2.439-0.412-3.207-1.241
	c-0.77-0.828-1.152-2.179-1.152-4.053c0-1.535,0.198-2.886,0.593-4.052c0.399-1.164,0.924-2.138,1.584-2.918
	c0.662-0.776,1.43-1.368,2.307-1.763c0.876-0.396,1.784-0.596,2.718-0.596c1.032,0,1.807,0.135,2.325,0.398
	c0.514,0.262,0.857,0.694,1.026,1.295c0.096-0.624,0.228-1.057,0.395-1.295c0.169-0.24,0.47-0.36,0.9-0.36
	c0.24,0,0.433,0.028,0.575,0.088c0.147,0.061,0.302,0.152,0.471,0.272l-1.155,8.355c-0.12,0.911-0.216,1.621-0.285,2.124
	c-0.075,0.502-0.109,0.911-0.109,1.225c0,0.337,0.06,0.547,0.179,0.628c0.119,0.086,0.409,0.129,0.865,0.129
	c0.17,0,0.403-0.032,0.701-0.09c0.301-0.061,0.536-0.114,0.705-0.165c0.217,0.171,0.324,0.435,0.324,0.793
	C308.679,115.125,308.449,115.407,307.993,115.635L307.993,115.635z M302.086,103.012c-1.68,0-2.989,0.634-3.924,1.903
	c-0.936,1.268-1.403,2.968-1.403,5.097c0,1.509,0.219,2.626,0.667,3.357c0.441,0.731,1.253,1.096,2.429,1.096
	c0.313,0,0.649-0.056,1.008-0.163c0.36-0.105,0.719-0.258,1.083-0.448c0.359-0.193,0.701-0.433,1.025-0.718
	c0.326-0.288,0.606-0.613,0.844-0.968l1.191-8.512C304.213,103.224,303.239,103.012,302.086,103.012L302.086,103.012z
	 M323.121,103.662c-0.217-0.052-0.523-0.093-0.918-0.129c-0.398-0.036-0.802-0.054-1.207-0.054c-0.289,0-0.547,0.048-0.773,0.144
	c-0.229,0.097-0.493,0.301-0.794,0.613c-0.302,0.309-0.653,0.744-1.062,1.295c-0.409,0.554-0.915,1.273-1.514,2.161l3.744,5.8
	c0.192,0.264,0.362,0.457,0.506,0.574c0.144,0.123,0.36,0.183,0.649,0.183c0.19,0,0.45-0.021,0.774-0.056
	c0.321-0.034,0.57-0.075,0.737-0.127c0.192,0.145,0.289,0.41,0.289,0.794c0,0.24-0.199,0.49-0.596,0.757
	c-0.395,0.264-1.074,0.395-2.035,0.395c-0.313,0-0.565-0.018-0.754-0.052c-0.193-0.039-0.369-0.109-0.523-0.217
	c-0.159-0.107-0.307-0.251-0.45-0.433c-0.144-0.181-0.303-0.414-0.468-0.701l-3.385-5.225c-0.362-0.48-0.543-0.959-0.543-1.439
	c1.01-1.561,1.831-2.774,2.468-3.638c0.635-0.862,1.194-1.501,1.677-1.908c0.479-0.407,0.929-0.647,1.351-0.721
	c0.418-0.073,0.918-0.109,1.492-0.109c0.721,0,1.203,0.103,1.443,0.309c0.237,0.204,0.36,0.474,0.36,0.809
	C323.591,103.095,323.432,103.421,323.121,103.662L323.121,103.662z M312.729,115.92c-0.133,0.039-0.33,0.057-0.594,0.057
	c-0.48,0-0.78-0.097-0.9-0.29c-0.12-0.19-0.178-0.454-0.178-0.791c0-0.167,0.011-0.391,0.034-0.669
	c0.023-0.272,0.047-0.56,0.073-0.859c0.023-0.303,0.054-0.601,0.088-0.903c0.038-0.3,0.079-0.57,0.126-0.808l2.016-14.731
	c0.12-0.817,0.272-1.364,0.45-1.641c0.183-0.274,0.513-0.416,0.993-0.416c0.239,0,0.426,0.021,0.557,0.056
	c0.133,0.034,0.272,0.104,0.416,0.2l-2.737,20.672C312.978,115.846,312.861,115.886,312.729,115.92L312.729,115.92z
	 M331.021,109.133c-0.553,0-1.134-0.018-1.734-0.054c-0.603-0.037-1.22-0.101-1.846-0.197c-0.023,0.144-0.035,0.287-0.035,0.431
	c0,0.122,0,0.24,0,0.36c0,3.124,1.282,4.685,3.854,4.685c0.791,0,1.586-0.086,2.378-0.255c0.791-0.165,1.571-0.434,2.341-0.791
	c0.287,0.216,0.431,0.493,0.431,0.829c0,0.479-0.418,0.931-1.259,1.351c-0.84,0.419-2.221,0.629-4.142,0.629
	c-3.793,0-5.692-1.996-5.692-5.993c0-1.299,0.169-2.491,0.506-3.573c0.337-1.083,0.828-2.012,1.476-2.783
	c0.651-0.768,1.455-1.364,2.411-1.786c0.963-0.42,2.08-0.63,3.352-0.63c0.816,0,1.492,0.09,2.034,0.271
	c0.541,0.181,0.974,0.421,1.298,0.721c0.325,0.305,0.56,0.665,0.703,1.087c0.144,0.423,0.217,0.875,0.217,1.357
	C337.313,107.686,335.215,109.133,331.021,109.133L331.021,109.133z M334.768,103.533c-0.397-0.373-1.101-0.56-2.116-0.56
	c-0.459,0-0.941,0.073-1.447,0.217c-0.504,0.146-0.986,0.386-1.447,0.723c-0.459,0.336-0.873,0.791-1.248,1.367
	c-0.375,0.577-0.658,1.295-0.852,2.159c0.41,0.075,0.925,0.127,1.54,0.165c0.613,0.034,1.173,0.054,1.683,0.054
	c1.664,0,2.826-0.223,3.49-0.667c0.663-0.445,0.997-1.084,0.997-1.927C335.367,104.414,335.166,103.906,334.768,103.533
	L334.768,103.533z M355.624,103.389c-0.298,0.156-0.811,0.233-1.531,0.233c-0.6,0-1.2-0.006-1.801-0.017
	c-0.601-0.013-1.2-0.02-1.799-0.02l-0.938,7.599c-0.071,0.482-0.107,0.976-0.107,1.479c0,0.696,0.146,1.164,0.431,1.401
	c0.29,0.24,0.77,0.362,1.443,0.362c0.598,0,1.23-0.139,1.891-0.413c0.66-0.279,1.241-0.558,1.743-0.847
	c0.388,0.144,0.581,0.396,0.581,0.757c0,0.478-0.21,0.855-0.63,1.134c-0.423,0.274-0.907,0.497-1.461,0.667
	c-0.553,0.167-1.123,0.274-1.711,0.323c-0.589,0.048-1.039,0.071-1.349,0.071c-1.13,0-1.955-0.224-2.47-0.667
	c-0.517-0.444-0.773-1.243-0.773-2.395c0-0.434,0.036-0.852,0.109-1.261c0.313-2.736,0.673-5.477,1.082-8.212l-1.839,0.036
	c-0.144-0.144-0.217-0.347-0.217-0.61c0-0.434,0.19-0.723,0.574-0.866c0.387-0.144,0.963-0.24,1.732-0.288l0.285-2.737
	c0.052-0.36,0.163-0.685,0.344-0.972c0.18-0.289,0.472-0.433,0.881-0.433c0.456,0,0.854,0.109,1.189,0.326l-0.574,3.815l5.187-0.036
	c0.047,0.097,0.09,0.21,0.124,0.341c0.036,0.133,0.054,0.249,0.054,0.344C356.074,102.939,355.927,103.233,355.624,103.389
	L355.624,103.389z M371.202,115.635c-0.456,0.228-1.227,0.342-2.305,0.342c-0.673,0-1.177-0.131-1.514-0.399
	c-0.337-0.262-0.504-0.741-0.504-1.437c0-0.506,0.073-1.248,0.215-2.233c0.216-1.271,0.398-2.318,0.54-3.133
	c0.144-0.816,0.276-1.591,0.395-2.326c0.122-0.729,0.195-1.192,0.217-1.385c0.051-0.577-0.08-1.021-0.395-1.334
	c-0.312-0.309-0.888-0.468-1.727-0.468c-0.768,0-1.623,0.29-2.56,0.866c-0.937,0.575-1.729,1.426-2.376,2.556l-0.255,1.908
	c-0.07,0.577-0.161,1.25-0.268,2.018c-0.109,0.768-0.213,1.508-0.307,2.215c-0.099,0.708-0.178,1.34-0.251,1.892
	c-0.073,0.553-0.109,0.913-0.109,1.08c-0.097,0.05-0.21,0.09-0.341,0.124c-0.133,0.039-0.332,0.057-0.597,0.057
	c-0.482,0-0.786-0.097-0.915-0.29c-0.137-0.19-0.199-0.454-0.199-0.791c0-0.504,0.041-1.051,0.126-1.638
	c0.084-0.588,0.161-1.124,0.234-1.602l2.015-14.731c0.123-0.817,0.271-1.364,0.45-1.641c0.183-0.274,0.511-0.416,0.993-0.416
	c0.238,0,0.425,0.021,0.558,0.056c0.131,0.034,0.27,0.104,0.411,0.2l-1.295,9.615c0.407-0.89,1.113-1.638,2.107-2.251
	c0.995-0.611,2.143-0.92,3.439-0.92c1.344,0,2.292,0.35,2.845,1.044c0.552,0.699,0.733,1.61,0.538,2.74l-0.898,5.581
	c-0.096,0.576-0.173,1.1-0.233,1.567c-0.058,0.467-0.09,0.797-0.09,0.99c0,0.337,0.06,0.547,0.18,0.628
	c0.12,0.086,0.41,0.129,0.864,0.129c0.17,0,0.403-0.032,0.703-0.09c0.301-0.061,0.536-0.114,0.701-0.165
	c0.193,0.147,0.29,0.409,0.29,0.793C371.887,115.125,371.657,115.407,371.202,115.635L371.202,115.635z M379.626,97.86
	c-0.285,0.264-0.705,0.398-1.259,0.398c-0.409,0-0.735-0.092-0.992-0.272C377.124,97.808,377,97.5,377,97.069
	c0-0.434,0.154-0.787,0.467-1.062c0.313-0.278,0.746-0.416,1.298-0.416c0.479,0,0.816,0.107,1.01,0.326
	c0.188,0.214,0.287,0.502,0.287,0.861C380.062,97.238,379.918,97.596,379.626,97.86L379.626,97.86z M378.55,103.012l-0.757,5.58
	c-0.169,1.201-0.315,2.245-0.436,3.133c-0.117,0.89-0.178,1.478-0.178,1.767c0,0.337,0.061,0.547,0.178,0.628
	c0.12,0.086,0.41,0.129,0.866,0.129c0.168,0,0.401-0.032,0.701-0.09c0.303-0.061,0.536-0.114,0.701-0.165
	c0.195,0.147,0.292,0.409,0.292,0.793c0,0.339-0.228,0.62-0.687,0.849c-0.454,0.228-1.222,0.342-2.305,0.342
	c-0.671,0-1.177-0.131-1.512-0.399c-0.336-0.262-0.504-0.741-0.504-1.437c0-0.506,0.071-1.248,0.213-2.233l1.226-8.536l-2.268,0.073
	c-0.165-0.147-0.251-0.337-0.251-0.579c0-0.407,0.233-0.707,0.701-0.9c0.467-0.19,1.282-0.287,2.431-0.287
	c0.697,0,1.154,0.09,1.37,0.271C378.55,102.128,378.618,102.482,378.55,103.012L378.55,103.012z M396.268,115.635
	c-0.456,0.228-1.226,0.342-2.303,0.342c-0.673,0-1.184-0.131-1.532-0.399c-0.348-0.262-0.523-0.741-0.523-1.437
	c0-0.576,0.086-1.32,0.253-2.233c0.217-1.271,0.395-2.318,0.54-3.133c0.144-0.816,0.276-1.591,0.395-2.326
	c0.122-0.729,0.185-1.192,0.185-1.385c0.045-0.577-0.09-1.025-0.418-1.351c-0.324-0.324-0.902-0.485-1.747-0.485
	c-0.382,0-0.785,0.069-1.203,0.217c-0.42,0.142-0.847,0.358-1.282,0.646c-0.429,0.289-0.845,0.649-1.241,1.08
	c-0.395,0.434-0.748,0.925-1.063,1.478l-0.287,1.944c-0.071,0.577-0.161,1.25-0.271,2.018c-0.107,0.768-0.21,1.508-0.307,2.215
	c-0.094,0.708-0.174,1.34-0.233,1.892c-0.058,0.553-0.09,0.913-0.09,1.08c-0.12,0.05-0.26,0.09-0.412,0.124
	c-0.158,0.039-0.368,0.057-0.633,0.057c-0.478,0-0.773-0.097-0.883-0.29c-0.107-0.19-0.161-0.454-0.161-0.791
	c0-0.504,0.05-1.01,0.144-1.512c0.097-0.506,0.168-0.997,0.217-1.477l1.117-8.536l-2.159,0.073
	c-0.171-0.169-0.255-0.375-0.255-0.615c0-0.405,0.235-0.701,0.703-0.881c0.468-0.181,1.277-0.271,2.432-0.271
	c0.694,0,1.157,0.09,1.389,0.271c0.226,0.18,0.279,0.533,0.161,1.063l-0.472,2.233c0.169-0.553,0.446-1.059,0.83-1.516
	c0.384-0.454,0.829-0.845,1.331-1.168c0.508-0.324,1.065-0.577,1.677-0.757c0.608-0.183,1.243-0.271,1.891-0.271
	c1.318,0,2.265,0.348,2.826,1.044c0.565,0.697,0.752,1.621,0.562,2.774l-0.902,5.581c-0.097,0.723-0.181,1.261-0.251,1.623
	c-0.025,0.188-0.043,0.354-0.056,0.484s-0.018,0.283-0.018,0.45c0,0.337,0.059,0.547,0.181,0.628
	c0.12,0.086,0.407,0.129,0.861,0.129c0.172,0,0.405-0.032,0.703-0.09c0.303-0.061,0.536-0.114,0.703-0.165
	c0.191,0.147,0.288,0.409,0.288,0.793C396.952,115.125,396.723,115.407,396.268,115.635L396.268,115.635z M413.827,103.335
	c-0.302,0.144-0.821,0.217-1.567,0.217c-0.48,0-0.906-0.025-1.279-0.073c-0.373-0.047-0.728-0.12-1.063-0.217
	c0.649,0.24,1.123,0.638,1.426,1.19c0.298,0.553,0.45,1.175,0.45,1.869c0,1.876-0.635,3.311-1.894,4.306
	c-1.261,0.997-2.982,1.496-5.167,1.496c-0.287,0-0.57-0.017-0.847-0.056c-0.276-0.034-0.558-0.075-0.847-0.126
	c-0.337,0.12-0.695,0.336-1.081,0.649c-0.384,0.313-0.574,0.696-0.574,1.151c0,0.289,0.149,0.506,0.45,0.649
	c0.298,0.144,0.941,0.251,1.925,0.324c0.697,0.07,1.531,0.126,2.505,0.16c0.973,0.039,1.916,0.08,2.827,0.127
	c1.029,0.049,1.732,0.296,2.108,0.739c0.368,0.444,0.557,0.976,0.557,1.602c0,1.055-0.278,1.928-0.832,2.611
	c-0.551,0.685-1.234,1.231-2.052,1.641c-0.814,0.407-1.708,0.694-2.682,0.864c-0.972,0.167-1.865,0.253-2.685,0.253
	c-1.801,0-3.146-0.253-4.032-0.759c-0.886-0.502-1.332-1.309-1.332-2.412c0-0.841,0.221-1.572,0.669-2.198s1.13-1.065,2.052-1.333
	c-0.504-0.142-0.898-0.358-1.189-0.646c-0.287-0.29-0.434-0.66-0.434-1.117c0-0.768,0.298-1.37,0.886-1.801s1.259-0.71,2.011-0.83
	c-0.956-0.287-1.625-0.748-1.998-1.385c-0.371-0.637-0.556-1.411-0.556-2.324c0-1.033,0.185-1.955,0.556-2.772
	c0.373-0.814,0.89-1.496,1.55-2.034c0.661-0.54,1.429-0.956,2.306-1.244c0.874-0.289,1.82-0.431,2.83-0.431
	c0.476,0,0.983,0.034,1.509,0.107c0.529,0.07,1.141,0.178,1.84,0.323c0.694,0,1.357-0.004,1.979-0.019
	c0.626-0.011,1.271-0.018,1.945-0.018c0.047,0.073,0.09,0.181,0.128,0.324c0.034,0.144,0.054,0.266,0.054,0.36
	C414.277,102.916,414.125,103.19,413.827,103.335L413.827,103.335z M400.464,117.434c-0.251,0.446-0.378,0.979-0.378,1.604
	c0,0.694,0.313,1.234,0.936,1.62c0.626,0.384,1.659,0.577,3.098,0.577c0.457,0,0.997-0.043,1.621-0.124
	c0.626-0.086,1.218-0.249,1.783-0.489c0.563-0.24,1.043-0.553,1.441-0.937c0.395-0.386,0.594-0.888,0.594-1.514
	c0-0.502-0.169-0.862-0.502-1.079c-0.336-0.216-1.071-0.347-2.201-0.396c-0.864-0.023-1.748-0.066-2.665-0.126
	c-0.914-0.059-1.786-0.161-2.629-0.305C401.081,116.6,400.717,116.991,400.464,117.434L400.464,117.434z M408.843,103.82
	c-0.552-0.587-1.351-0.881-2.403-0.881c-1.364,0-2.481,0.403-3.35,1.207c-0.874,0.804-1.312,1.938-1.312,3.402
	c0,1.128,0.304,1.932,0.917,2.414c0.607,0.48,1.413,0.721,2.419,0.721c1.479,0,2.609-0.35,3.383-1.044
	c0.78-0.695,1.169-1.777,1.169-3.242C409.666,105.267,409.39,104.41,408.843,103.82L408.843,103.82z M425.424,103.748
	c-0.133,0.158-0.332,0.285-0.594,0.381c-0.48-0.386-1.005-0.643-1.578-0.775c-0.574-0.131-1.218-0.197-1.934-0.197
	c-1.024,0-1.81,0.227-2.346,0.684c-0.54,0.455-0.804,0.961-0.804,1.514c0,0.36,0.045,0.665,0.137,0.918
	c0.099,0.253,0.277,0.486,0.541,0.701c0.262,0.216,0.628,0.429,1.093,0.632c0.468,0.202,1.058,0.439,1.773,0.701
	c0.644,0.264,1.175,0.517,1.593,0.757c0.421,0.24,0.746,0.498,0.984,0.772c0.242,0.278,0.407,0.578,0.506,0.9
	c0.093,0.325,0.144,0.682,0.144,1.063c0,0.504-0.103,1.01-0.311,1.514c-0.201,0.504-0.517,0.956-0.933,1.351
	c-0.42,0.396-0.956,0.716-1.606,0.954c-0.645,0.24-1.415,0.36-2.305,0.36c-0.336,0-0.795-0.011-1.383-0.035
	c-0.592-0.027-1.179-0.103-1.767-0.233c-0.587-0.133-1.1-0.337-1.533-0.615c-0.429-0.274-0.645-0.654-0.645-1.134
	c0-0.335,0.106-0.599,0.321-0.791c0.217-0.193,0.495-0.337,0.83-0.434c0.504,0.577,1.175,0.99,2.015,1.241
	c0.841,0.251,1.634,0.382,2.378,0.382c0.911,0,1.625-0.199,2.145-0.596c0.514-0.395,0.775-0.92,0.775-1.567
	c0-0.527-0.205-0.972-0.615-1.332c-0.405-0.362-1.175-0.746-2.305-1.155c-0.721-0.238-1.331-0.491-1.833-0.753
	c-0.508-0.266-0.911-0.553-1.209-0.866c-0.303-0.313-0.523-0.671-0.667-1.08c-0.142-0.407-0.215-0.886-0.215-1.44
	c0-0.601,0.136-1.154,0.414-1.655c0.274-0.506,0.658-0.941,1.151-1.316c0.491-0.371,1.083-0.667,1.765-0.884
	c0.684-0.217,1.432-0.323,2.251-0.323c1.25,0,2.219,0.152,2.918,0.45c0.695,0.3,1.044,0.692,1.044,1.173
	C425.621,103.346,425.555,103.593,425.424,103.748L425.424,103.748z M440.507,109.133c-0.553,0-1.13-0.018-1.731-0.054
	c-0.605-0.037-1.221-0.101-1.847-0.197c-0.021,0.144-0.034,0.287-0.034,0.431c0,0.122,0,0.24,0,0.36
	c0,3.124,1.284,4.685,3.855,4.685c0.791,0,1.582-0.086,2.375-0.255c0.791-0.165,1.574-0.434,2.342-0.791
	c0.287,0.216,0.433,0.493,0.433,0.829c0,0.479-0.422,0.931-1.263,1.351c-0.841,0.419-2.219,0.629-4.143,0.629
	c-3.792,0-5.689-1.996-5.689-5.993c0-1.299,0.169-2.491,0.506-3.573c0.336-1.083,0.827-2.012,1.477-2.783
	c0.647-0.768,1.452-1.364,2.412-1.786c0.961-0.42,2.078-0.63,3.35-0.63c0.814,0,1.494,0.09,2.034,0.271
	c0.542,0.181,0.974,0.421,1.3,0.721c0.321,0.305,0.557,0.665,0.698,1.087c0.144,0.423,0.217,0.875,0.217,1.357
	C446.798,107.686,444.703,109.133,440.507,109.133L440.507,109.133z M444.255,103.533c-0.396-0.373-1.102-0.56-2.116-0.56
	c-0.459,0-0.941,0.073-1.447,0.217c-0.506,0.146-0.988,0.386-1.447,0.723c-0.459,0.336-0.872,0.791-1.247,1.367
	c-0.373,0.577-0.658,1.295-0.852,2.159c0.409,0.075,0.924,0.127,1.537,0.165c0.613,0.034,1.177,0.054,1.684,0.054
	c1.663,0,2.83-0.223,3.492-0.667c0.665-0.445,0.993-1.084,0.993-1.927C444.852,104.414,444.654,103.906,444.255,103.533
	L444.255,103.533z M462.717,115.635c-0.454,0.228-1.224,0.342-2.305,0.342c-0.601,0-1.053-0.127-1.349-0.378
	c-0.302-0.255-0.45-0.703-0.45-1.351c0-0.337,0.045-0.746,0.144-1.225c-0.409,0.959-1.04,1.698-1.891,2.213
	c-0.855,0.517-1.928,0.774-3.227,0.774c-1.366,0-2.434-0.412-3.203-1.241c-0.771-0.828-1.153-2.179-1.153-4.053
	c0-1.535,0.201-2.886,0.596-4.052c0.396-1.164,0.922-2.138,1.582-2.918c0.66-0.776,1.43-1.368,2.307-1.763
	c0.875-0.396,1.782-0.596,2.721-0.596c1.029,0,1.806,0.135,2.322,0.398c0.515,0.262,0.857,0.694,1.027,1.295
	c0.092-0.624,0.225-1.057,0.395-1.295c0.167-0.24,0.467-0.36,0.9-0.36c0.24,0,0.433,0.028,0.576,0.088
	c0.145,0.061,0.301,0.152,0.468,0.272l-1.151,8.355c-0.12,0.911-0.219,1.621-0.287,2.124c-0.075,0.502-0.109,0.911-0.109,1.225
	c0,0.337,0.06,0.547,0.178,0.628c0.12,0.086,0.409,0.129,0.866,0.129c0.167,0,0.401-0.032,0.701-0.09
	c0.303-0.061,0.536-0.114,0.701-0.165c0.219,0.171,0.328,0.435,0.328,0.793C463.403,115.125,463.174,115.407,462.717,115.635
	L462.717,115.635z M456.813,103.012c-1.681,0-2.993,0.634-3.928,1.903c-0.939,1.268-1.406,2.968-1.406,5.097
	c0,1.509,0.225,2.626,0.669,3.357c0.441,0.731,1.254,1.096,2.431,1.096c0.309,0,0.65-0.056,1.008-0.163
	c0.36-0.105,0.719-0.258,1.081-0.448c0.362-0.193,0.703-0.433,1.024-0.718c0.324-0.288,0.609-0.613,0.847-0.968l1.19-8.512
	C458.938,103.224,457.964,103.012,456.813,103.012L456.813,103.012z M475.809,103.748c-0.131,0.158-0.33,0.285-0.594,0.381
	c-0.477-0.386-1.002-0.643-1.574-0.775c-0.574-0.131-1.222-0.197-1.938-0.197c-1.024,0-1.81,0.227-2.343,0.684
	c-0.538,0.455-0.807,0.961-0.807,1.514c0,0.36,0.048,0.665,0.142,0.918c0.097,0.253,0.274,0.486,0.538,0.701
	c0.264,0.216,0.626,0.429,1.092,0.632c0.467,0.202,1.057,0.439,1.772,0.701c0.647,0.264,1.175,0.517,1.596,0.757
	c0.418,0.24,0.746,0.498,0.986,0.772c0.237,0.278,0.403,0.578,0.501,0.9c0.095,0.325,0.145,0.682,0.145,1.063
	c0,0.504-0.104,1.01-0.307,1.514c-0.206,0.504-0.518,0.956-0.938,1.351c-0.42,0.396-0.952,0.716-1.602,0.954
	c-0.649,0.24-1.419,0.36-2.305,0.36c-0.339,0-0.8-0.011-1.387-0.035c-0.59-0.027-1.18-0.103-1.767-0.233
	c-0.588-0.133-1.096-0.337-1.529-0.615c-0.433-0.274-0.649-0.654-0.649-1.134c0-0.335,0.107-0.599,0.323-0.791
	c0.219-0.193,0.493-0.337,0.83-0.434c0.504,0.577,1.177,0.99,2.018,1.241s1.632,0.382,2.376,0.382c0.913,0,1.629-0.199,2.144-0.596
	c0.517-0.395,0.774-0.92,0.774-1.567c0-0.527-0.204-0.972-0.611-1.332c-0.409-0.362-1.18-0.746-2.307-1.155
	c-0.721-0.238-1.334-0.491-1.836-0.753c-0.506-0.266-0.906-0.553-1.209-0.866c-0.303-0.313-0.519-0.671-0.665-1.08
	c-0.144-0.407-0.216-0.886-0.216-1.44c0-0.601,0.139-1.154,0.413-1.655c0.274-0.506,0.661-0.941,1.154-1.316
	c0.493-0.371,1.08-0.667,1.764-0.884c0.685-0.217,1.437-0.323,2.249-0.323c1.25,0,2.226,0.152,2.921,0.45
	c0.696,0.3,1.042,0.692,1.042,1.173C476.006,103.346,475.939,103.593,475.809,103.748L475.809,103.748z M483.713,97.86
	c-0.287,0.264-0.707,0.398-1.261,0.398c-0.407,0-0.735-0.092-0.99-0.272c-0.253-0.178-0.377-0.486-0.377-0.917
	c0-0.434,0.154-0.787,0.47-1.062c0.311-0.278,0.743-0.416,1.295-0.416c0.479,0,0.816,0.107,1.01,0.326
	c0.188,0.214,0.287,0.502,0.287,0.861C484.146,97.238,484.003,97.596,483.713,97.86L483.713,97.86z M482.635,103.012l-0.757,5.58
	c-0.169,1.201-0.315,2.245-0.433,3.133c-0.12,0.89-0.179,1.478-0.179,1.767c0,0.337,0.059,0.547,0.179,0.628
	c0.117,0.086,0.407,0.129,0.863,0.129c0.168,0,0.401-0.032,0.701-0.09c0.303-0.061,0.536-0.114,0.703-0.165
	c0.191,0.147,0.29,0.409,0.29,0.793c0,0.339-0.228,0.62-0.687,0.849c-0.454,0.228-1.222,0.342-2.305,0.342
	c-0.671,0-1.175-0.131-1.512-0.399c-0.336-0.262-0.501-0.741-0.501-1.437c0-0.506,0.07-1.248,0.214-2.233l1.223-8.536l-2.269,0.073
	c-0.165-0.147-0.251-0.337-0.251-0.579c0-0.407,0.233-0.707,0.701-0.9c0.47-0.19,1.279-0.287,2.431-0.287
	c0.697,0,1.154,0.09,1.37,0.271C482.635,102.128,482.708,102.482,482.635,103.012L482.635,103.012z M492.371,109.133
	c-0.556,0-1.133-0.018-1.734-0.054c-0.605-0.037-1.216-0.101-1.842-0.197c-0.028,0.144-0.039,0.287-0.039,0.431
	c0,0.122,0,0.24,0,0.36c0,3.124,1.286,4.685,3.853,4.685c0.794,0,1.587-0.086,2.38-0.255c0.791-0.165,1.569-0.434,2.34-0.791
	c0.289,0.216,0.433,0.493,0.433,0.829c0,0.479-0.422,0.931-1.261,1.351c-0.843,0.419-2.221,0.629-4.145,0.629
	c-3.792,0-5.688-1.996-5.688-5.993c0-1.299,0.167-2.491,0.504-3.573c0.336-1.083,0.832-2.012,1.477-2.783
	c0.647-0.768,1.452-1.364,2.414-1.786c0.959-0.42,2.076-0.63,3.348-0.63c0.818,0,1.496,0.09,2.036,0.271
	c0.538,0.181,0.972,0.421,1.298,0.721c0.323,0.305,0.557,0.665,0.7,1.087c0.146,0.423,0.215,0.875,0.215,1.357
	C498.659,107.686,496.564,109.133,492.371,109.133L492.371,109.133z M496.121,103.533c-0.401-0.373-1.106-0.56-2.119-0.56
	c-0.456,0-0.938,0.073-1.449,0.217c-0.506,0.146-0.988,0.386-1.447,0.723c-0.454,0.336-0.874,0.791-1.25,1.367
	c-0.37,0.577-0.653,1.295-0.849,2.159c0.414,0.075,0.926,0.127,1.537,0.165c0.617,0.034,1.18,0.054,1.686,0.054
	c1.661,0,2.825-0.223,3.49-0.667c0.665-0.445,0.995-1.084,0.995-1.927C496.715,104.414,496.518,103.906,496.121,103.533
	L496.121,103.533z M511.519,103.228c-0.099,0.165-0.208,0.299-0.325,0.395c-0.24-0.047-0.552-0.081-0.938-0.109
	c-0.382-0.023-0.778-0.034-1.186-0.034c-0.504,0-1.146,0.416-1.93,1.241c-0.78,0.83-1.589,2.048-2.429,3.656L504.531,110
	c-0.07,0.598-0.156,1.207-0.251,1.817c-0.099,0.611-0.182,1.194-0.253,1.748c-0.072,0.553-0.133,1.026-0.182,1.421
	c-0.045,0.396-0.068,0.667-0.068,0.811c-0.097,0.05-0.219,0.09-0.365,0.124c-0.142,0.039-0.345,0.057-0.608,0.057
	c-0.48,0-0.787-0.097-0.918-0.29c-0.133-0.19-0.199-0.454-0.199-0.791c0-0.504,0.041-1.01,0.126-1.512
	c0.084-0.506,0.163-0.997,0.234-1.477l1.188-8.536L501,103.445c-0.167-0.169-0.25-0.362-0.25-0.579c0-0.431,0.233-0.737,0.7-0.917
	c0.47-0.181,1.28-0.271,2.437-0.271c0.694,0,1.155,0.09,1.383,0.271c0.229,0.18,0.293,0.533,0.199,1.063l-0.757,3.926
	c0.504-1.18,0.952-2.119,1.349-2.826c0.398-0.712,0.795-1.259,1.189-1.641c0.396-0.384,0.798-0.639,1.207-0.759
	c0.407-0.118,0.864-0.178,1.368-0.178c0.746,0,1.235,0.109,1.478,0.323c0.237,0.215,0.359,0.493,0.359,0.828
	C511.662,102.881,511.613,103.059,511.519,103.228L511.519,103.228z"/>
<polygon fill-rule="evenodd" clip-rule="evenodd" fill="#2C2C2C" points="522.381,106.865 595.701,106.865 595.701,108.151 
	522.381,108.151 522.381,106.865 "/>
<polygon fill-rule="evenodd" clip-rule="evenodd" fill="#2C2C2C" points="18.151,106.865 91.47,106.865 91.47,108.151 
	18.151,108.151 18.151,106.865 "/>
</svg>
